<?xml version="1.0" encoding="UTF-8" standalone="no"?>
<svg
   xml:space="preserve"
   enable-background="new 0 0 286 60"
   viewBox="0 0 285.30667 60.000999"
   height="60.000999"
   width="285.30667"
   y="0px"
   x="0px"
   id="Layer_1"
   version="1.1"
   sodipodi:docname="Codecademy.svg"
   inkscape:version="1.3.2 (091e20e, 2023-11-25, custom)"
   xmlns:inkscape="http://www.inkscape.org/namespaces/inkscape"
   xmlns:sodipodi="http://sodipodi.sourceforge.net/DTD/sodipodi-0.dtd"
   xmlns="http://www.w3.org/2000/svg"
   xmlns:svg="http://www.w3.org/2000/svg"><defs
     id="defs1" /><sodipodi:namedview
     id="namedview1"
     pagecolor="#ffffff"
     bordercolor="#000000"
     borderopacity="0.25"
     inkscape:showpageshadow="2"
     inkscape:pageopacity="0.0"
     inkscape:pagecheckerboard="0"
     inkscape:deskcolor="#d1d1d1"
     inkscape:zoom="6.9188708"
     inkscape:cx="142.65334"
     inkscape:cy="29.990443"
     inkscape:window-width="2560"
     inkscape:window-height="1387"
     inkscape:window-x="-8"
     inkscape:window-y="-8"
     inkscape:window-maximized="1"
     inkscape:current-layer="Layer_1" /><g
     transform="translate(-0.665,0)"
     id="g11"><path
       style="fill:#204156"
       id="path13"
       d="m 12.237,41.354 c -0.514,-1.559 -0.769,-3.527 -0.769,-6.173 0,-2.647 0.255,-4.619 0.769,-6.174 1.436,-4.462 5.24,-6.9 10.221,-6.9 3.699,0 6.628,1.505 8.582,3.892 0.151,0.206 0.202,0.517 -0.052,0.724 l -3.235,2.854 c -0.258,0.209 -0.514,0.157 -0.721,-0.102 -1.234,-1.4 -2.518,-2.18 -4.573,-2.18 -2.208,0 -3.902,1.09 -4.623,3.269 -0.408,1.248 -0.513,2.699 -0.513,4.618 0,1.919 0.104,3.423 0.513,4.669 0.72,2.125 2.415,3.215 4.623,3.215 2.055,0 3.339,-0.779 4.573,-2.176 0.207,-0.263 0.463,-0.263 0.721,-0.055 l 3.235,2.854 c 0.254,0.207 0.203,0.467 0.052,0.727 -1.953,2.336 -4.882,3.839 -8.582,3.839 -4.981,-0.002 -8.785,-2.442 -10.221,-6.901" /><path
       style="fill:#204156"
       id="path15"
       d="m 124.477,41.354 c -0.514,-1.559 -0.769,-3.527 -0.769,-6.173 0,-2.647 0.255,-4.619 0.769,-6.174 1.439,-4.462 5.239,-6.9 10.22,-6.9 3.7,0 6.63,1.505 8.581,3.892 0.153,0.206 0.206,0.517 -0.053,0.724 l -3.236,2.854 c -0.257,0.209 -0.512,0.157 -0.718,-0.102 -1.232,-1.4 -2.517,-2.18 -4.574,-2.18 -2.207,0 -3.903,1.09 -4.621,3.269 -0.412,1.248 -0.512,2.699 -0.512,4.618 0,1.919 0.1,3.423 0.512,4.669 0.718,2.125 2.414,3.215 4.621,3.215 2.057,0 3.342,-0.779 4.574,-2.176 0.206,-0.263 0.462,-0.263 0.718,-0.055 l 3.236,2.854 c 0.259,0.207 0.206,0.467 0.053,0.727 -1.951,2.336 -4.881,3.839 -8.581,3.839 -4.981,-0.002 -8.781,-2.442 -10.22,-6.901" /><path
       style="fill:#204156"
       id="path17"
       d="m 254.202,47.684 c -0.308,0 -0.513,-0.206 -0.513,-0.52 l 0,-14.421 c 0,-3.217 -1.594,-5.449 -4.677,-5.449 -2.979,0 -4.725,2.231 -4.725,5.449 l 0,14.421 c 0,0.313 -0.207,0.52 -0.513,0.52 l -4.728,0 c -0.308,0 -0.515,-0.206 -0.515,-0.52 l 0,-14.421 c 0,-3.217 -1.592,-5.449 -4.67,-5.449 -2.981,0 -4.729,2.231 -4.729,5.449 l 0,14.421 c 0,0.313 -0.205,0.52 -0.514,0.52 l -4.726,0 c -0.31,0 -0.513,-0.206 -0.513,-0.52 l 0,-23.968 c 0,-0.312 0.203,-0.52 0.513,-0.52 l 4.726,0 c 0.309,0 0.514,0.208 0.514,0.52 l 0,1.816 0.052,0 c 1.08,-1.557 3.236,-2.905 6.523,-2.905 2.929,0 5.292,1.191 6.779,3.319 l 0.053,0 c 1.9,-2.073 4.367,-3.319 7.912,-3.319 5.751,0 8.99,3.942 8.99,9.286 l 0,15.77 c 0,0.314 -0.207,0.521 -0.516,0.521 l -4.723,0 0,0 z" /><path
       style="fill:#204156"
       id="path19"
       d="m 266.578,57.021 c -0.307,0 -0.512,-0.208 -0.512,-0.521 l 0,-4.149 c 0,-0.31 0.205,-0.521 0.512,-0.521 l 0.926,0 c 1.951,0 2.93,-0.878 3.699,-2.955 l 0.72,-2.127 -9.042,-23.553 c -0.104,-0.312 0.103,-0.52 0.413,-0.52 l 5.084,0 c 0.308,0 0.514,0.208 0.614,0.52 l 5.602,16.342 0.101,0 5.344,-16.342 c 0.103,-0.312 0.309,-0.52 0.614,-0.52 l 4.879,0 c 0.311,0 0.517,0.208 0.412,0.52 l -9.45,26.043 c -2.156,5.915 -4.214,7.781 -8.322,7.781 l -1.594,0.002 0,0 z" /><path
       style="fill:#204156"
       id="path21"
       d="m 35.766,41.356 c -0.565,-1.767 -0.822,-3.426 -0.822,-6.175 0,-2.745 0.257,-4.406 0.822,-6.166 1.387,-4.358 5.185,-6.901 10.218,-6.901 4.98,0 8.78,2.542 10.167,6.901 0.562,1.76 0.821,3.421 0.821,6.166 0,2.749 -0.259,4.408 -0.821,6.175 -1.388,4.355 -5.187,6.896 -10.167,6.896 -5.033,10e-4 -8.831,-2.54 -10.218,-6.896 M 50.605,39.8 c 0.412,-1.295 0.514,-2.49 0.514,-4.618 0,-2.122 -0.102,-3.265 -0.514,-4.612 -0.718,-2.073 -2.311,-3.269 -4.621,-3.269 -2.309,0 -3.955,1.196 -4.672,3.269 -0.409,1.348 -0.513,2.49 -0.513,4.612 0,2.128 0.104,3.323 0.513,4.618 0.717,2.077 2.364,3.266 4.672,3.266 2.31,-0.001 3.903,-1.19 4.621,-3.266" /><path
       style="fill:#204156"
       id="path23"
       d="m 157.043,22.107 c -4.059,0 -6.78,0.985 -8.785,2.438 -0.203,0.158 -0.256,0.414 -0.1,0.673 l 1.896,3.426 c 0.159,0.26 0.463,0.312 0.722,0.104 1.182,-0.932 2.875,-1.713 5.651,-1.713 4.047,0 5.421,1.228 5.491,3.927 l 0.001,0 0,0.033 c 0.002,0.063 0.002,0.127 0.002,0.194 l 0,8.094 c 0,2.853 -1.951,4.251 -5.494,4.251 -2.776,0 -4.264,-1.035 -4.264,-3.109 0,-2.336 1.645,-3.376 5.342,-3.376 l 1.124,0.002 c 0.308,0 0.515,-0.208 0.515,-0.517 l 0,-3.326 c 0,-0.31 -0.207,-0.517 -0.515,-0.517 l -0.247,0 -1.801,-0.001 c -6.112,0 -9.917,2.494 -9.917,7.938 0,5.241 3.805,7.626 8.323,7.626 3.49,0 5.803,-1.192 6.985,-2.904 l 0.05,0 0,1.816 c 0,0.312 0.208,0.52 0.515,0.52 l 4.314,0 c 0.309,0 0.515,-0.207 0.515,-0.52 l 0,-16.342 c 10e-4,-6.121 -2.772,-8.717 -10.323,-8.717" /><path
       style="fill:#204156"
       id="path25"
       d="m 95.672,32.688 c -0.134,0 -0.222,0.089 -0.222,0.223 l 0,0.148 0,0.434 0,2.748 0,0.369 0,0.213 c 0,0.134 0.088,0.224 0.222,0.224 l 0.128,0 12.592,0 c 0.36,0 0.566,-0.206 0.566,-0.515 0,-4.05 -0.259,-5.763 -0.822,-7.525 -1.389,-4.254 -5.086,-6.899 -10.172,-6.899 -4.931,0 -8.731,2.541 -10.12,6.899 -0.511,1.608 -0.822,3.58 -0.822,6.174 0,2.594 0.36,4.512 0.877,6.122 1.386,4.356 5.083,6.95 10.322,6.95 4.57,0 8.066,-1.764 10.17,-4.254 0.204,-0.258 0.204,-0.517 -0.052,-0.727 l -3.028,-2.697 c -0.259,-0.207 -0.515,-0.153 -0.773,0.104 -1.231,1.35 -3.029,2.387 -5.803,2.387 -2.771,0 -4.725,-1.348 -5.547,-3.785 -0.124,-0.341 -0.227,-0.699 -0.292,-1.088 l -0.001,0 c -0.187,-1.056 -0.297,-2.084 -0.297,-3.594 0.04,-1.423 0.122,-2.332 0.324,-3.487 0.002,-0.016 0.005,-0.03 0.008,-0.045 0.002,-0.012 0.004,-0.021 0.006,-0.033 l 0,0.001 c 0.049,-0.272 0.116,-0.528 0.199,-0.783 0.668,-2.023 2.517,-3.216 4.882,-3.216 2.312,0 4.158,1.193 4.826,3.216 0.207,0.626 0.308,1.245 0.308,2.129 0,0.207 -0.102,0.309 -0.308,0.309 l -6.749,0 0.001,-10e-4 -0.423,-10e-4 0,0 z" /><path
       style="fill:#204156"
       id="path27"
       d="m 82.25,12.408 -4.718,0 c -0.311,0 -0.516,0.207 -0.516,0.515 l 0,12.121 0,0 0,10.024 c 0,0.027 0,0.054 0,0.08 0,0.027 0,0.054 0,0.08 l 0,1.331 -0.026,0 c -0.055,1.43 -0.21,2.37 -0.485,3.251 -0.667,2.07 -2.26,3.209 -4.617,3.209 -2.308,0 -3.897,-1.139 -4.567,-3.209 -0.358,-1.141 -0.51,-2.383 -0.51,-4.662 0,-2.278 0.152,-3.523 0.51,-4.66 0.657,-2.031 2.195,-3.178 4.427,-3.223 l 2.014,0 c 0.098,-0.024 0.162,-0.101 0.162,-0.213 l 0.026,-4.736 c 0,-0.121 -0.076,-0.202 -0.188,-0.216 l -1.608,-0.006 -1.89,0 0,10e-4 c -4.135,0.044 -7.162,2.06 -8.43,6.005 -0.616,1.919 -0.872,3.683 -0.872,7.048 0,3.366 0.256,5.128 0.872,7.043 1.282,3.99 4.36,6.01 8.565,6.01 3.336,0 5.388,-1.241 6.565,-2.953 l 0.05,0 0,1.865 c 0,0.312 0.206,0.519 0.516,0.519 l 4.718,0 c 0.308,0 0.514,-0.206 0.514,-0.519 l 0,-34.19 c 0.002,-0.309 -0.204,-0.515 -0.512,-0.515" /><path
       style="fill:#204156"
       id="path29"
       d="m 205.935,32.688 c -0.132,0 -0.222,0.089 -0.222,0.223 l 0,0.148 0,0.434 0,2.748 0,0.369 0,0.213 c 0,0.134 0.09,0.224 0.222,0.224 l 0.13,0 12.593,0 c 0.359,0 0.565,-0.206 0.565,-0.515 0,-4.05 -0.258,-5.763 -0.821,-7.525 -1.389,-4.254 -5.087,-6.899 -10.171,-6.899 -4.932,0 -8.732,2.541 -10.121,6.899 -0.512,1.608 -0.822,3.58 -0.822,6.174 0,2.594 0.36,4.512 0.877,6.122 1.385,4.356 5.083,6.95 10.322,6.95 4.57,0 8.066,-1.764 10.171,-4.254 0.204,-0.258 0.204,-0.517 -0.053,-0.727 l -3.028,-2.697 c -0.258,-0.207 -0.514,-0.153 -0.772,0.104 -1.231,1.35 -3.028,2.387 -5.804,2.387 -2.771,0 -4.724,-1.348 -5.547,-3.785 -0.123,-0.341 -0.227,-0.699 -0.29,-1.088 l -10e-4,0 c -0.188,-1.056 -0.298,-2.084 -0.298,-3.594 0.038,-1.423 0.12,-2.332 0.323,-3.487 0.004,-0.016 0.006,-0.03 0.008,-0.045 0.002,-0.012 0.004,-0.021 0.006,-0.033 l 0,0.001 c 0.051,-0.272 0.117,-0.528 0.2,-0.783 0.667,-2.023 2.517,-3.216 4.882,-3.216 2.312,0 4.158,1.193 4.826,3.216 0.206,0.626 0.309,1.245 0.309,2.129 0,0.207 -0.103,0.309 -0.309,0.309 l -6.749,0 0,-10e-4 -0.426,-10e-4 0,0 z" /><path
       style="fill:#204156"
       id="path31"
       d="m 192.758,12.408 -4.727,0 c -0.309,0 -0.515,0.208 -0.515,0.516 l 0,12.138 0,10.04 0,0.079 0,0.081 0,1.333 -0.025,0 c -0.056,1.432 -0.212,2.373 -0.487,3.255 -0.668,2.074 -2.264,3.216 -4.623,3.216 -2.31,0 -3.902,-1.142 -4.573,-3.216 -0.357,-1.143 -0.513,-2.386 -0.513,-4.669 0,-2.281 0.154,-3.529 0.513,-4.667 0.657,-2.034 2.198,-3.172 4.434,-3.217 l 2.017,10e-4 c 0.309,0 0.515,-0.207 0.515,-0.516 l 0,-4.157 c 0,-0.31 -0.206,-0.517 -0.515,-0.517 l -0.247,0 -3.049,-0.001 c -0.024,0 -0.048,0 -0.071,0 -0.023,0 -0.044,0 -0.066,0 l -0.07,0 0,0.001 c -4.14,0.043 -7.172,2.063 -8.441,6.014 -0.617,1.922 -0.873,3.687 -0.873,7.057 0,3.371 0.256,5.137 0.873,7.055 1.283,3.994 4.367,6.018 8.578,6.018 3.34,0 5.395,-1.242 6.575,-2.957 l 0.05,0 0,1.867 c 0,0.314 0.206,0.52 0.516,0.52 l 4.726,0 c 0.308,0 0.515,-0.205 0.515,-0.52 l 0,-34.238 c -0.004,-0.309 -0.21,-0.516 -0.517,-0.516" /><path
       style="fill:#204156"
       id="path33"
       d="m 124.091,54.757 0,4.727 c 0,0.311 0.206,0.517 0.515,0.517 l 17.516,0 c 0.313,0 0.52,-0.207 0.52,-0.517 l 0,-4.727 c 0,-0.307 -0.207,-0.514 -0.52,-0.514 l -17.516,0 c -0.309,0 -0.515,0.207 -0.515,0.514" /><path
       style="fill:#204156"
       id="path35"
       d="M 119.644,0.167 C 119.636,0.159 119.631,0.149 119.624,0.142 119.623,0.141 119.622,0.141 119.622,0.141 119.532,0.052 119.404,0 119.252,0 L 119.246,0 1.181,0 C 1.142,0 1.105,0.004 1.069,0.01 1.059,0.012 1.05,0.016 1.039,0.018 1.016,0.024 0.991,0.029 0.97,0.038 0.966,0.039 0.963,0.041 0.96,0.043 0.777,0.118 0.665,0.289 0.665,0.515 l 0,0.002 0,58.96 0,0.004 c 0,0.18 0.07,0.321 0.188,0.411 0.009,0.009 0.017,0.017 0.029,0.023 l 0,10e-4 c 0.082,0.052 0.182,0.08 0.299,0.08 l 118.064,0 0.006,0 c 0.174,0 0.315,-0.067 0.404,-0.182 0.07,-0.086 0.111,-0.199 0.111,-0.334 l 0,-0.004 0,-58.959 0,-0.002 c 0,-0.141 -0.045,-0.26 -0.122,-0.348 M 6.931,54.241 C 6.894,54.241 6.858,54.238 6.826,54.233 6.816,54.231 6.805,54.226 6.795,54.223 6.771,54.218 6.747,54.213 6.725,54.204 6.721,54.203 6.719,54.2 6.715,54.199 6.533,54.125 6.422,53.955 6.421,53.731 l 0,-42.736 0,-4.725 C 6.421,6.043 6.533,5.874 6.715,5.798 6.72,5.797 6.723,5.794 6.726,5.793 6.747,5.785 6.815,5.768 6.826,5.765 6.86,5.76 6.896,5.757 6.933,5.757 l 106.564,0 c 0.038,0 0.073,0.003 0.107,0.008 0.011,0.003 0.021,0.007 0.03,0.01 0.024,0.005 0.048,0.01 0.07,0.019 0.005,0.001 0.007,0.004 0.011,0.005 0.183,0.075 0.294,0.245 0.294,0.472 l 0,47.461 c -0.001,0.225 -0.113,0.395 -0.293,0.469 -0.004,10e-4 -0.006,0.004 -0.011,0.005 -0.021,0.008 -0.046,0.014 -0.069,0.019 -0.011,0.003 -0.02,0.008 -0.031,0.01 -0.034,0.006 -0.067,0.008 -0.104,0.008 l -106.57,0 0,-0.002 z" /></g><path
     style="fill:#ffffff;stroke-width:0.867194;stroke-linecap:round;stroke-linejoin:round;stroke-miterlimit:3.8;stroke-dashoffset:26.4"
     d="m 20.234516,48.104156 c -4.234792,-0.527787 -7.312947,-2.979472 -8.591965,-6.843316 -0.984956,-2.975496 -0.987042,-9.230471 -0.0041,-12.14843 0.918363,-2.726119 2.482939,-4.57742 4.868961,-5.761249 3.287732,-1.631215 7.942672,-1.501731 10.993289,0.305793 0.913149,0.541051 2.923292,2.368049 2.923292,2.65695 0,0.214803 -3.23978,3.145392 -3.557611,3.218086 -0.114007,0.02608 -0.579676,-0.293518 -1.034818,-0.710208 -1.135793,-1.039838 -2.079356,-1.448327 -3.558644,-1.540617 -2.791649,-0.174165 -4.608263,1.11891 -5.282487,3.7601 -0.596749,2.337691 -0.52038,6.871017 0.149724,8.88773 0.38655,1.16334 1.413869,2.323391 2.453689,2.77071 0.406036,0.174671 1.174262,0.35414 1.70717,0.398816 1.751505,0.146841 3.255876,-0.369417 4.566219,-1.566997 0.42195,-0.385639 0.84203,-0.701162 0.93351,-0.701162 0.236792,0 3.623248,3.033291 3.623248,3.245389 0,0.288842 -1.885463,2.007105 -2.819767,2.569713 -1.970621,1.186647 -4.900135,1.766485 -7.369757,1.458692 z"
     id="path1" /><path
     style="fill:#ffffff;stroke-width:0.867194;stroke-linecap:round;stroke-linejoin:round;stroke-miterlimit:3.8;stroke-dashoffset:26.4"
     d="M 0.16879509,59.812439 C 0.11570415,59.759348 0.07226613,46.335568 0.07226613,29.981817 0.07226613,3.0015437 0.09343967,0.23959999 0.30088544,0.15999559 0.64594507,0.02758378 118.63322,0.05906257 118.84199,0.19162214 c 0.14423,0.0915755 0.1736,6.16326456 0.14453,29.87983086 l -0.0365,29.764901 -59.342365,0.03631 C 26.969386,59.89263 0.22188602,59.86553 0.16879509,59.812439 Z M 113.31329,29.990443 V 5.7812902 H 59.547289 5.7812902 L 5.7441849,29.845911 c -0.020408,13.235541 -0.00616,24.146006 0.031671,24.245478 0.054924,0.144431 10.8913961,0.173541 53.8031041,0.144532 l 53.73433,-0.03632 z"
     id="path2" /><path
     style="fill:#ffffff;stroke-width:0.867194;stroke-linecap:round;stroke-linejoin:round;stroke-miterlimit:3.8;stroke-dashoffset:26.4"
     d="m 43.359676,48.040119 c -3.042982,-0.442622 -5.66772,-2.100163 -7.182679,-4.53591 -0.560675,-0.901452 -1.137703,-2.471058 -1.460935,-3.973965 -0.358778,-1.668189 -0.432369,-6.317284 -0.128109,-8.093224 0.257206,-1.501287 0.952757,-3.504773 1.578301,-4.546186 1.19971,-1.997291 3.364223,-3.572719 5.900811,-4.294869 1.595436,-0.45421 4.801921,-0.458982 6.444251,-0.0096 3.765102,1.030248 6.266354,3.660059 7.204619,7.574921 0.444392,1.8542 0.623659,4.684067 0.441356,6.967128 -0.307552,3.851587 -1.2641,6.276464 -3.234943,8.200671 -2.267955,2.214287 -5.899555,3.243848 -9.562672,2.711024 z m 4.159911,-5.37008 c 1.382004,-0.632703 2.17425,-1.660774 2.670853,-3.465874 0.359793,-1.307811 0.359793,-6.713312 0,-8.021122 -0.488166,-1.774435 -1.296859,-2.846475 -2.645426,-3.506899 -0.62233,-0.304769 -0.916137,-0.350447 -2.234152,-0.347344 -1.795418,0.0042 -2.523211,0.262942 -3.506023,1.246317 -1.281971,1.282706 -1.697138,2.901771 -1.697138,6.618487 0,3.431034 0.321698,4.889052 1.394462,6.320063 0.416458,0.555533 1.438552,1.181391 2.353165,1.44091 0.996238,0.282679 2.717191,0.149045 3.664259,-0.284538 z"
     id="path3" /><path
     style="fill:#ffffff;stroke-width:0.867194;stroke-linecap:round;stroke-linejoin:round;stroke-miterlimit:3.8;stroke-dashoffset:26.4"
     d="m 68.638936,48.039244 c -5.34832,-0.486821 -7.978581,-4.184349 -8.248894,-11.596005 -0.211328,-5.794339 0.749019,-9.591165 2.993898,-11.836668 1.82439,-1.824897 3.646459,-2.414274 7.476411,-2.41836 l 2.352062,-0.0025 -0.03955,2.493182 -0.03955,2.493181 -1.735177,0.07415 c -1.518169,0.06487 -1.838184,0.124544 -2.558813,0.477114 -2.00724,0.982051 -2.716677,2.90433 -2.714733,7.355787 0.0016,3.735704 0.340331,5.257777 1.450679,6.5192 0.692904,0.78718 1.530462,1.216486 2.759462,1.41441 2.275839,0.366514 4.54255,-0.687232 5.293667,-2.460912 0.692918,-1.636251 0.669705,-1.157505 0.719905,-14.847763 0.03878,-10.576057 0.08211,-12.914995 0.241695,-13.047441 0.131302,-0.108971 1.033129,-0.148536 2.777114,-0.121837 l 2.582669,0.03954 0.03725,17.343871 c 0.03475,16.177553 0.02074,17.35602 -0.20829,17.524536 -0.308761,0.227178 -4.697632,0.253824 -5.113893,0.03105 -0.238623,-0.127707 -0.279563,-0.309944 -0.279563,-1.244428 v -1.094809 l -0.796922,0.809756 c -1.630195,1.65645 -3.981108,2.365151 -6.949439,2.094964 z"
     id="path4" /><path
     style="fill:#ffffff;stroke-width:0.867194;stroke-linecap:round;stroke-linejoin:round;stroke-miterlimit:3.8;stroke-dashoffset:26.4"
     d="m 95.541445,48.050904 c -2.358985,-0.371515 -4.30138,-1.31594 -5.786915,-2.813693 -1.204511,-1.214418 -1.849317,-2.258509 -2.38864,-3.867767 -1.148738,-3.427665 -1.201043,-8.910757 -0.11682,-12.246195 1.092408,-3.360612 3.377441,-5.534027 6.870453,-6.534847 1.468987,-0.420895 4.618881,-0.453693 6.185857,-0.06441 1.81843,0.45175 3.29268,1.280896 4.62731,2.602489 1.00133,0.991551 1.29397,1.396095 1.84567,2.551447 1.03096,2.159021 1.46208,4.535727 1.3764,7.587943 l -0.0446,1.589855 -6.61235,0.03759 -6.612355,0.03759 v -2.097177 -2.097175 h 3.850967 3.850968 l -0.0836,-1.104861 c -0.15492,-2.048417 -1.23762,-3.600559 -2.961484,-4.245538 -3.056828,-1.143706 -6.281123,0.159548 -7.121264,2.878402 -0.459983,1.488595 -0.663376,4.2985 -0.45878,6.33813 0.276333,2.754772 0.975256,4.328627 2.397852,5.399551 2.36553,1.780757 6.693436,1.395768 9.115916,-0.810909 0.39248,-0.357519 0.7755,-0.650034 0.85116,-0.650034 0.13234,0 1.24687,0.940456 2.74674,2.317727 0.90569,0.831662 0.86158,1.004389 -0.56796,2.224143 -1.63639,1.396245 -3.47606,2.280359 -5.767,2.771525 -1.262774,0.270732 -4.055044,0.376143 -5.197535,0.196212 z"
     id="path5" /><path
     style="fill:#ffffff;stroke-width:0.867194;stroke-linecap:round;stroke-linejoin:round;stroke-miterlimit:3.8;stroke-dashoffset:26.4"
     d="m 123.60024,59.813342 c -0.18263,-0.182637 -0.11187,-5.180158 0.076,-5.368042 0.13116,-0.131158 2.32446,-0.172899 8.99713,-0.171225 4.85304,0.0012 8.90651,0.05477 9.00772,0.119005 0.14054,0.0892 0.1747,0.746064 0.14453,2.780033 l -0.0395,2.663241 -9.04423,0.03721 c -4.97433,0.02047 -9.08808,-0.0066 -9.14167,-0.06022 z"
     id="path6" /><path
     style="fill:#ffffff;stroke-width:0.867194;stroke-linecap:round;stroke-linejoin:round;stroke-miterlimit:3.8;stroke-dashoffset:26.4"
     d="m 132.60834,48.107873 c -3.09576,-0.464948 -5.0313,-1.401742 -6.69525,-3.240459 -0.96091,-1.061851 -1.85795,-2.801082 -2.26362,-4.388885 -0.68546,-2.682895 -0.68736,-7.858869 -0.004,-10.56985 0.94982,-3.767349 3.57275,-6.418053 7.30062,-7.377924 1.40284,-0.36121 4.68325,-0.371417 5.99809,-0.01866 1.70122,0.456412 3.45984,1.435063 4.69785,2.614284 0.88683,0.844721 1.09225,1.116161 0.987,1.304219 -0.20181,0.36062 -3.39303,3.126251 -3.60733,3.126251 -0.10313,0 -0.49894,-0.303309 -0.87958,-0.67402 -0.38064,-0.370711 -1.11483,-0.874767 -1.63154,-1.120125 -0.86443,-0.410479 -1.06065,-0.446105 -2.45704,-0.446105 -1.37096,0 -1.59753,0.03926 -2.34493,0.406273 -0.87183,0.428122 -1.66267,1.226907 -2.07502,2.095881 -0.51033,1.075437 -0.66094,1.992952 -0.74045,4.510843 -0.1157,3.663865 0.18997,5.519581 1.13557,6.894119 1.69262,2.460419 5.84781,2.560836 8.1372,0.196647 0.31423,-0.324498 0.67194,-0.589561 0.79492,-0.589027 0.22162,9.61e-4 3.44274,2.747713 3.66184,3.122566 0.29082,0.497559 -2.29214,2.593144 -4.14905,3.366179 -1.65082,0.687236 -4.22917,1.033542 -5.86541,0.787796 z"
     id="path7" /><path
     style="fill:#ffffff;stroke-width:0.867194;stroke-linecap:round;stroke-linejoin:round;stroke-miterlimit:3.8;stroke-dashoffset:26.4"
     d="m 152.337,47.998329 c -1.34201,-0.261376 -2.42953,-0.691771 -3.35022,-1.325878 -2.32985,-1.604629 -3.39836,-4.724021 -2.71814,-7.935286 0.85555,-4.039032 4.23996,-5.998592 10.36311,-6.000202 1.88678,-4.96e-4 1.84787,-0.04462 1.84787,2.09531 0,1.976402 -0.0639,2.09538 -1.12521,2.096903 -1.43609,0.0021 -3.36488,0.28397 -4.09661,0.59875 -1.40358,0.603805 -2.09926,2.048513 -1.73867,3.610674 0.37269,1.614616 1.44747,2.294568 3.80648,2.408162 2.9492,0.142014 4.91338,-0.717744 5.7105,-2.499602 0.22752,-0.508587 0.26447,-1.140472 0.30712,-5.253117 0.0554,-5.336982 -0.0423,-6.324095 -0.71791,-7.256739 -1.4742,-2.035084 -7.1351,-2.145236 -10.07091,-0.195964 -0.65247,0.433216 -0.81375,0.48718 -0.97259,0.325425 -0.2894,-0.294721 -2.08665,-3.562264 -2.08665,-3.793702 0,-0.295542 2.05946,-1.451786 3.36015,-1.886485 1.46839,-0.490749 3.57196,-0.798967 5.46011,-0.800025 5.11323,-0.0029 8.14817,1.273005 9.4021,3.952584 0.84396,1.803508 0.8617,2.067125 0.82083,12.193935 l -0.0372,9.21804 -2.38398,0.03988 c -2.78931,0.04666 -2.74692,0.06802 -2.74692,-1.383864 v -0.927405 l -0.86031,0.7965 c -1.47857,1.368891 -3.07705,1.951463 -5.64364,2.056843 -0.94756,0.0389 -1.8976,-0.0117 -2.52931,-0.134739 z"
     id="path8" /><path
     style="fill:#ffffff;stroke-width:0.867194;stroke-linecap:round;stroke-linejoin:round;stroke-miterlimit:3.8;stroke-dashoffset:26.4"
     d="m 178.7864,48.108093 c -4.40658,-0.709614 -6.90307,-3.502274 -7.66823,-8.57792 -0.28088,-1.863261 -0.27811,-7.009363 0.005,-8.753125 0.7339,-4.524821 2.6156,-7.054793 6.07366,-8.166137 0.85707,-0.275442 1.42637,-0.335183 3.7242,-0.390809 2.01694,-0.04883 2.76742,-0.02006 2.92678,0.112197 0.28705,0.238229 0.31735,4.503485 0.0336,4.734999 -0.0994,0.08109 -0.96114,0.172796 -1.91505,0.203799 -1.35862,0.04416 -1.87689,0.12113 -2.39213,0.355271 -1.39204,0.632593 -2.16556,1.649731 -2.68501,3.530653 -0.36264,1.313147 -0.36987,6.536663 -0.011,7.978168 0.63227,2.539961 2.00124,3.78894 4.34677,3.965762 2.04737,0.154346 3.77841,-0.629048 4.67213,-2.1144 0.98505,-1.63713 0.97045,-1.420658 1.05329,-15.62114 l 0.0746,-12.791105 2.58267,-0.03954 c 1.78232,-0.02729 2.64451,0.01179 2.78224,0.126096 0.16769,0.139173 0.19958,2.900559 0.19958,17.284512 0,11.524079 -0.0489,17.210244 -0.14962,17.398439 -0.13885,0.259448 -0.32518,0.279563 -2.58976,0.279563 -1.34208,0 -2.54302,-0.03948 -2.66876,-0.08773 -0.18244,-0.07001 -0.22862,-0.324268 -0.22862,-1.258819 v -1.17109 l -0.87518,0.877897 c -0.936,0.938899 -1.9413,1.527649 -3.19072,1.86862 -0.8047,0.219607 -3.34201,0.377926 -4.10017,0.255837 z"
     id="path9" /><path
     style="fill:#ffffff;stroke-width:0.867194;stroke-linecap:round;stroke-linejoin:round;stroke-miterlimit:3.8;stroke-dashoffset:26.4"
     d="m 205.81956,48.040737 c -3.36858,-0.490764 -6.22058,-2.445934 -7.57327,-5.191816 -1.9544,-3.967286 -2.07446,-11.007291 -0.2549,-14.945499 1.24428,-2.693073 3.34886,-4.438967 6.40736,-5.315325 1.46536,-0.419875 4.61644,-0.453104 6.18475,-0.06522 2.85241,0.705481 5.26131,2.627821 6.47206,5.164803 1.02493,2.147622 1.46407,4.588781 1.37622,7.650455 l -0.0435,1.517589 -6.61235,0.03759 -6.61235,0.03759 v -2.094777 -2.094776 l 3.79397,-0.03853 3.79397,-0.03853 -0.0222,-0.93946 c -0.0632,-2.676423 -1.86342,-4.490947 -4.69086,-4.727989 -2.09157,-0.175349 -4.04045,0.742928 -4.98027,2.346616 -1.1699,1.996284 -1.21299,8.134526 -0.0742,10.568099 1.23038,2.629266 3.90744,3.732827 7.30791,3.012531 1.31718,-0.279011 2.29327,-0.768064 3.31172,-1.659284 0.45474,-0.397928 0.89551,-0.723506 0.97949,-0.723506 0.25372,0 3.44379,2.903729 3.44379,3.134672 0,0.298433 -1.36836,1.604291 -2.39542,2.286019 -2.65866,1.76472 -6.45166,2.568302 -9.81193,2.078749 z"
     id="path10" /><path
     style="fill:#ffffff;stroke-width:0.867194;stroke-linecap:round;stroke-linejoin:round;stroke-miterlimit:3.8;stroke-dashoffset:26.4"
     d="m 222.95788,47.42691 c -0.11887,-0.143222 -0.15304,-3.502201 -0.1261,-12.393641 l 0.037,-12.197173 2.58267,-0.03954 c 1.78232,-0.02729 2.64451,0.01179 2.78224,0.126097 0.13512,0.112134 0.19958,0.493813 0.19958,1.181663 v 1.01603 l 0.86176,-0.821979 c 1.8633,-1.777285 4.83871,-2.505687 7.73791,-1.894291 1.53164,0.323001 2.72292,0.976993 3.8711,2.125163 l 0.9974,0.997407 0.74546,-0.697997 c 2.03213,-1.902753 4.64476,-2.778593 7.75527,-2.599825 3.35598,0.192876 5.85053,1.722713 7.19761,4.41408 1.04943,2.096714 1.05332,2.143358 1.00833,12.091738 l -0.0399,8.816468 h -2.67384 -2.67385 l -0.0795,-8.166073 c -0.0693,-7.115912 -0.11066,-8.259847 -0.32201,-8.895272 -0.74953,-2.253503 -2.46905,-3.383958 -4.88442,-3.21114 -1.85569,0.132774 -3.23312,1.130672 -3.92687,2.84488 -0.32216,0.796017 -0.32729,0.911867 -0.39862,9.00151 -0.049,5.554032 -0.12229,8.245088 -0.22747,8.350176 -0.10202,0.10193 -1.04298,0.141503 -2.74611,0.11549 l -2.59092,-0.03957 -0.0783,-8.166073 c -0.086,-8.965794 -0.074,-8.84216 -0.99866,-10.299871 -1.50595,-2.374145 -5.67142,-2.473184 -7.40864,-0.17615 -1.08205,1.430738 -1.04325,1.069413 -1.09283,10.179055 -0.0304,5.580044 -0.0939,8.217762 -0.2009,8.346738 -0.23051,0.277743 -5.07632,0.270528 -5.30739,-0.0079 z"
     id="path11" /><path
     style="fill:#ffffff;stroke-width:0.867194;stroke-linecap:round;stroke-linejoin:round;stroke-miterlimit:3.8;stroke-dashoffset:26.4"
     d="m 265.68642,56.861865 c -0.2235,-0.130174 -0.25268,-0.402987 -0.25072,-2.344254 10e-4,-1.208314 0.05,-2.268506 0.1084,-2.355982 0.0584,-0.08748 0.64942,-0.203373 1.31338,-0.257548 2.28209,-0.186205 3.06222,-0.943242 4.08251,-3.961615 l 0.40512,-1.1985 -4.54979,-11.852666 c -2.50238,-6.518966 -4.51158,-11.914497 -4.46487,-11.990068 0.10198,-0.165006 5.40734,-0.184101 5.66504,-0.02039 0.0975,0.06192 1.45716,3.849478 3.02154,8.416791 1.56437,4.567313 2.86671,8.331305 2.89409,8.364427 0.0274,0.03312 0.0802,0.02978 0.11742,-0.0074 0.0372,-0.03721 1.27965,-3.77156 2.76099,-8.29856 1.48134,-4.527 2.75965,-8.312209 2.84069,-8.411575 0.1835,-0.224978 5.39261,-0.261541 5.53026,-0.03882 0.0983,0.158973 -9.30388,26.195281 -10.22386,28.311818 -1.62262,3.733094 -3.45506,5.333606 -6.46995,5.65109 -1.72731,0.181894 -2.45946,0.180123 -2.78025,-0.0067 z"
     id="path12" /></svg>
