<?xml version="1.0" encoding="UTF-8" standalone="no"?>
<!-- Generator: Adobe Illustrator 16.2.0, SVG Export Plug-In . SVG Version: 6.00 Build 0)  -->

<svg
   viewBox="0 0 1155 164"
   fill-rule="evenodd"
   clip-rule="evenodd"
   stroke-linejoin="round"
   stroke-miterlimit="2"
   version="1.1"
   id="svg1"
   sodipodi:docname="coursera.svg"
   inkscape:version="1.3.2 (091e20e, 2023-11-25, custom)"
   xmlns:inkscape="http://www.inkscape.org/namespaces/inkscape"
   xmlns:sodipodi="http://sodipodi.sourceforge.net/DTD/sodipodi-0.dtd"
   xmlns="http://www.w3.org/2000/svg"
   xmlns:svg="http://www.w3.org/2000/svg">
  <defs
     id="defs1" />
  <sodipodi:namedview
     id="namedview1"
     pagecolor="#ffffff"
     bordercolor="#000000"
     borderopacity="0.25"
     inkscape:showpageshadow="2"
     inkscape:pageopacity="0.0"
     inkscape:pagecheckerboard="0"
     inkscape:deskcolor="#d1d1d1"
     inkscape:zoom="1.7090909"
     inkscape:cx="577.5"
     inkscape:cy="82.207447"
     inkscape:window-width="2560"
     inkscape:window-height="1387"
     inkscape:window-x="-8"
     inkscape:window-y="-8"
     inkscape:window-maximized="1"
     inkscape:current-layer="svg1" />
  <path
     d="M159.75 81.54c0-44.49 36.63-80.47 82.43-80.47 46.12 0 82.76 36 82.76 80.47 0 44.16-36.64 80.8-82.76 80.8-45.8 0-82.43-36.68-82.43-80.8zm125.61 0c0-22.24-19.3-41.87-43.18-41.87-23.55 0-42.85 19.63-42.85 41.87 0 22.57 19.3 42.2 42.85 42.2 23.92 0 43.18-19.63 43.18-42.2zm705.63 1.31c0-48.74 39.58-81.78 75.57-81.78 24.53 0 38.6 7.52 48.08 21.92l3.77-19h36.79v155.4h-36.79l-4.75-16c-10.79 11.78-24.21 19-47.1 19-35.33-.05-75.57-31.13-75.57-79.54zm125.61-.33c-.09-23.527-19.47-42.835-43-42.835-23.59 0-43 19.411-43 43v.165c0 21.59 19.3 40.89 42.86 40.89 23.85 0 43.14-19.3 43.14-41.22zM945.78 22V4h-40.23v155.39h40.23V75.66c0-25.19 12.44-38.27 34-38.27 1.43 0 2.79.1 4.12.23L991.36.11c-20.97.11-36.17 7.3-45.58 21.89zm-404.27.01v-18l-40.23.09.34 155.37 40.23-.09-.22-83.72c-.06-25.18 12.35-38.29 33.93-38.34 1.376.004 2.752.081 4.12.23L587.1 0c-21 .17-36.22 7.39-45.59 22.01zM338.88 99.2V4.01h40.22V94.3c0 19.95 11.12 31.73 30.42 31.73 21.59 0 34-13.09 34-38.28V4.01h40.24v155.38h-40.21v-18c-9.48 14.72-24.86 21.92-46.12 21.92-35.98.01-58.55-26.16-58.55-64.11zm391.74-17.48c.09-43.51 31.23-80.74 80.62-80.65 45.8.09 78.11 36.78 78 80 .01 4.273-.33 8.54-1 12.76l-118.41-.22c4.54 18.65 19.89 32.09 43.12 32.14 14.06 0 29.12-5.18 38.3-16.94l27.44 22c-14.11 19.93-39 31.66-65.48 31.61-46.75-.16-82.67-35.23-82.59-80.7zm118.12-16.14c-2.26-15.7-18.59-27.84-37.89-27.87-18.65 0-33.71 11.06-39.63 27.73l77.52.14zm-261.4 59.94l35.76-18.72c5.91 12.81 17.73 20.36 34.48 20.36 15.43 0 21.34-4.92 21.34-11.82 0-25-84.71-9.85-84.71-67 0-31.52 27.58-48.26 61.72-48.26 25.94 0 48.92 11.49 61.4 32.83l-35.44 18.75c-5.25-10.51-15.1-16.42-27.58-16.42-12.14 0-18.06 4.27-18.06 11.49 0 24.3 84.71 8.87 84.71 67 0 30.21-24.62 48.59-64.35 48.59-33.82-.03-57.46-11.19-69.27-36.8zM0 81.54C0 36.73 36.63.74 82.43.74c27.947-.196 54.182 13.737 69.67 37l-34.34 19.92a42.972 42.972 0 00-35.33-18.32c-23.55 0-42.85 19.63-42.85 42.2 0 22.57 19.3 42.2 42.85 42.2a42.502 42.502 0 0036.31-20l34 20.28c-15.307 23.955-41.902 38.431-70.33 38.28C36.63 162.34 0 125.66 0 81.54z"
     fill="#0056D2"
     fill-rule="nonzero"
     id="path1" />
  <path
     style="fill:#ffffff;stroke-width:3.51064;stroke-linecap:round;stroke-linejoin:round;stroke-miterlimit:3.8;stroke-dashoffset:26.4"
     d="M 71.968085,161.41581 C 53.552415,158.64337 38.192892,151.28465 25.388527,139.09963 18.822013,132.85074 13.562005,125.85666 9.4442191,117.89894 5.5796517,110.43056 3.7398992,105.38439 1.9606839,97.37269 0.20972167,89.488212 0.06197026,74.824563 1.6530028,66.836761 7.9074249,35.43633 31.517381,10.887531 62.57106,3.4963082 c 23.632529,-5.624881 46.83201,-1.4382054 67.08017,12.1055668 8.03149,5.372171 22.46267,20.266313 21.36197,22.047274 -0.18614,0.301184 -7.71988,4.815869 -16.74164,10.032634 l -16.4032,9.485027 -1.25821,-1.668512 C 110.61711,47.550917 100.41472,41.593675 89.562099,39.704749 80.266877,38.086893 72.322057,39.361638 62.898936,43.982847 58.19471,46.289855 56.5275,47.52579 52.051026,52.024616 43.422687,60.696034 39.485446,69.96674 39.503329,81.569657 c 0.01001,6.494336 1.015378,11.337888 3.483037,16.78019 4.923717,10.859023 13.867226,19.053543 25.374257,23.249223 4.137838,1.50873 5.796345,1.77682 12.384058,2.0018 9.383702,0.32046 13.573374,-0.53696 21.317809,-4.36273 4.33368,-2.14085 6.48335,-3.67801 10.00285,-7.15272 2.4656,-2.43421 5.01566,-5.19743 5.6668,-6.14046 l 1.1839,-1.71462 16.45953,9.83007 c 9.05274,5.40654 16.45954,10.03896 16.45954,10.29427 0,1.23651 -7.41401,10.19599 -12.17727,14.71566 -11.11642,10.54793 -24.83618,17.80957 -40.189755,21.27175 -4.008295,0.90385 -23.558097,1.66717 -27.5,1.07372 z"
     id="path2" />
  <path
     style="fill:#ffffff;stroke-width:3.51064;stroke-linecap:round;stroke-linejoin:round;stroke-miterlimit:3.8;stroke-dashoffset:26.4"
     d="m 228.19149,160.8571 c -25.23558,-4.41975 -47.43224,-20.5776 -59.01323,-42.95816 -6.56652,-12.68997 -8.83836,-22.017967 -8.83519,-36.2766 0.002,-10.631184 0.77068,-15.636704 3.82839,-24.941672 3.65009,-11.107678 9.47805,-20.681138 18.02217,-29.604635 15.56588,-16.257032 34.40893,-24.646175 57.11488,-25.4281996 14.8475,-0.5113685 26.6063,1.9376524 39.78723,8.2865352 9.94341,4.7894604 18.99856,11.6600884 25.84964,19.6135034 21.19352,24.60357 25.55759,58.141144 11.30633,86.888298 -11.55265,23.30362 -34.19169,39.99814 -60.2245,44.41086 -6.81698,1.15552 -21.26566,1.16075 -27.83572,0.0101 z m 27.71702,-39.0763 c 7.11727,-2.50817 11.63571,-5.38467 17.04362,-10.85017 5.51076,-5.56945 8.14813,-9.61076 10.28843,-15.765195 5.37634,-15.459651 1.54981,-31.132785 -10.52473,-43.108415 -15.44101,-15.314516 -39.47616,-16.779867 -57.03165,-3.477047 -7.2938,5.526939 -13.5025,14.985101 -15.54488,23.680665 -1.17758,5.013607 -1.15826,13.845689 0.0409,18.686022 3.69755,14.92523 15.11462,26.8199 30.05918,31.3166 4.54182,1.3666 5.68426,1.47654 13.1649,1.26692 6.94776,-0.19468 8.8463,-0.4603 12.50425,-1.74938 z"
     id="path3" />
  <path
     style="fill:#ffffff;stroke-width:3.51064;stroke-linecap:round;stroke-linejoin:round;stroke-miterlimit:3.8;stroke-dashoffset:26.4"
     d="m 386.35819,162.11339 c -23.93063,-4.22605 -39.71334,-20.26731 -45.62464,-46.37207 -1.28186,-5.66076 -1.30306,-6.48226 -1.51099,-58.547171 L 339.01167,4.3882979 h 19.9004 19.9004 l 0.1728,49.2952131 c 0.1725,49.209459 0.17507,49.301899 1.47609,53.140609 4.36264,12.87212 14.04613,19.28216 29.08976,19.25615 3.23092,-0.006 7.61797,-0.37974 9.74899,-0.83143 11.30482,-2.39622 19.38951,-10.50653 22.89155,-22.96408 1.26663,-4.505678 1.28801,-5.248845 1.47451,-51.234228 l 0.18924,-46.6622341 h 19.86751 19.86751 V 81.62234 158.85638 h -19.87838 -19.87838 l -0.16151,-8.85452 -0.16152,-8.85453 -2.86083,3.64299 c -6.7331,8.57394 -15.96777,14.08204 -28.14981,16.79022 -5.61742,1.2488 -20.38333,1.54978 -26.14181,0.53285 z"
     id="path4" />
  <path
     style="fill:#ffffff;stroke-width:3.51064;stroke-linecap:round;stroke-linejoin:round;stroke-miterlimit:3.8;stroke-dashoffset:26.4"
     d="M 501.72872,81.914894 V 4.3882979 h 19.60107 19.60106 v 8.7765961 c 0,4.916272 0.23544,8.776595 0.53527,8.776595 0.29441,0 1.46641,-1.268448 2.60445,-2.818774 5.59471,-7.621526 13.97548,-13.2561587 24.06602,-16.1802826 4.9952,-1.4475529 17.49652,-3.19584339 18.15362,-2.53875469 0.18796,0.18796554 -1.25217,8.40347349 -3.2003,18.25668529 -1.94812,9.85321 -3.54204,18.045195 -3.54204,18.20441 0,0.159215 -2.04056,0.294054 -4.53457,0.299642 -17.47135,0.03914 -28.9258,9.21584 -32.37697,25.938717 -1.02696,4.976196 -1.10554,8.539663 -1.11269,50.460198 l -0.008,45.10588 -14.1373,0.38614 c -7.77552,0.21237 -16.72764,0.38614 -19.89362,0.38614 h -5.75632 z"
     id="path5" />
  <path
     style="fill:#ffffff;stroke-width:3.51064;stroke-linecap:round;stroke-linejoin:round;stroke-miterlimit:3.8;stroke-dashoffset:26.4"
     d="m 639.33911,160.89548 c -6.60333,-1.00217 -15.0773,-3.20957 -19.99996,-5.20982 -12.64287,-5.13726 -23.20812,-14.46354 -29.40466,-25.95642 l -2.19318,-4.06773 17.6028,-9.19418 c 9.68154,-5.0568 17.67932,-9.10723 17.77285,-9.00097 0.0935,0.10627 0.76685,1.37805 1.49626,2.82619 0.72942,1.44814 3.19729,4.50241 5.48416,6.78728 6.99727,6.99114 15.5979,10.18081 27.45156,10.18081 7.36294,0 11.39755,-0.69889 15.45556,-2.67729 4.01863,-1.95919 5.59337,-4.22594 5.90224,-8.4959 0.19601,-2.70985 -0.0153,-3.8093 -1.10487,-5.74787 -2.79922,-4.98054 -8.90433,-7.79892 -28.75461,-13.27434 C 623.23884,89.946351 613.4172,85.279601 604.8138,76.04771 597.94135,68.673211 594.76064,60.074569 594.76064,48.870248 c 0,-7.369892 0.72221,-11.797518 2.77002,-16.98195 6.07253,-15.373827 20.41686,-25.791235 41.22918,-29.942227 9.27356,-1.84960089 24.37627,-1.8437229 33.07901,0.012874 18.15013,3.8720575 32.9425,13.274055 42.4612,26.988258 l 2.62891,3.787629 -10.32618,5.462062 c -5.6794,3.004134 -13.52593,7.15916 -17.43673,9.233392 l -7.11055,3.771332 -1.46352,-2.497308 c -2.22563,-3.797763 -7.48043,-8.41538 -12.09112,-10.624993 -7.30802,-3.502276 -17.79421,-4.112486 -24.91132,-1.449635 -7.79219,2.915431 -10.02254,11.303384 -4.5234,17.011726 3.8136,3.958688 8.19276,5.610595 33.22109,12.531655 22.39947,6.194106 34.52585,13.086132 41.51044,23.592455 5.1259,7.710455 7.16011,15.975352 6.60341,26.829312 -1.15372,22.49379 -16.1673,37.59912 -43.27077,43.53521 -7.18663,1.57398 -29.48745,2.02567 -37.7912,0.76544 z"
     id="path6" />
  <path
     style="fill:#ffffff;stroke-width:3.51064;stroke-linecap:round;stroke-linejoin:round;stroke-miterlimit:3.8;stroke-dashoffset:26.4"
     d="m 805.80476,161.76822 c -33.43634,-3.10701 -60.5328,-23.94655 -70.76557,-54.42489 -3.00571,-8.952519 -3.64545,-13.459366 -3.65102,-25.72099 -0.006,-12.623992 0.90702,-18.433209 4.4938,-28.600293 9.64232,-27.332197 32.92017,-46.3200789 62.09627,-50.6523135 34.37373,-5.1040087 66.35846,10.7675075 81.63588,40.5095055 3.6466,7.099179 6.71112,16.02845 8.07561,23.530335 1.05548,5.803004 1.45794,22.203419 0.62099,25.305852 l -0.43408,1.609042 h -59.08459 c -53.51294,0 -59.0846,0.08737 -59.0846,0.926463 0,1.637684 3.40946,9.503249 5.62248,12.970969 2.68663,4.20986 8.41975,9.77288 12.73842,12.36049 13.8469,8.29663 33.84087,8.56207 49.51406,0.65737 4.49985,-2.26948 9.92516,-6.32707 12.09381,-9.04495 l 1.55238,-1.94554 13.21549,10.56213 c 7.26852,5.80917 13.31698,10.6434 13.44102,10.74274 0.97012,0.7769 -8.46653,10.75417 -14.26809,15.08551 -16.22268,12.11155 -37.41533,18.02392 -57.81226,16.12857 z m 42.81425,-98.430454 c -1.49019,-6.881355 -7.3785,-14.798769 -14.14586,-19.020493 -7.58143,-4.729571 -14.3473,-6.644321 -23.4519,-6.636915 -13.00723,0.01058 -21.44294,3.448619 -30.19678,12.306938 -4.62945,4.6847 -8.36768,10.321456 -9.62994,14.520683 l -0.39573,1.316489 h 39.17936 39.17937 z"
     id="path7" />
  <path
     style="fill:#ffffff;stroke-width:3.51064;stroke-linecap:round;stroke-linejoin:round;stroke-miterlimit:3.8;stroke-dashoffset:26.4"
     d="M 906.03723,81.62234 V 4.3882979 h 19.60107 19.60106 v 8.7765961 c 0,4.827127 0.22749,8.776595 0.50553,8.776595 0.27805,0 1.22329,-1.035717 2.10054,-2.301594 5.89935,-8.512767 17.36997,-15.4844395 29.28223,-17.7973123 6.02793,-1.17037697 13.74993,-1.83302011 13.75025,-1.17994252 1.4e-4,0.2791649 -1.61831,8.60398212 -3.59657,18.49959382 l -3.59681,17.992021 -4.44865,0.01016 c -10.02535,0.02289 -18.73108,3.392222 -24.29619,9.403201 -5.61168,6.061285 -8.20589,12.859486 -9.12116,23.902281 -0.30836,3.720282 -0.56481,25.129172 -0.56991,47.575313 l -0.009,40.81117 H 925.6383 906.03723 Z"
     id="path8" />
  <path
     style="fill:#ffffff;stroke-width:3.51064;stroke-linecap:round;stroke-linejoin:round;stroke-miterlimit:3.8;stroke-dashoffset:26.4"
     d="m 1063.1383,161.98747 c -16.5053,-1.36835 -31.9331,-8.02513 -45.034,-19.43128 -12.4118,-10.8061 -21.55421,-26.50955 -25.25585,-43.380658 -0.86822,-3.957092 -1.08691,-7.364728 -1.07019,-16.675532 0.019,-10.576547 0.17027,-12.333861 1.57272,-18.269935 3.81853,-16.162415 11.18062,-29.25605 23.00722,-40.919133 13.4795,-13.292982 30.4295,-20.945859 48.0312,-21.6859181 21.2436,-0.89318425 36.8292,4.9452873 46.9746,17.5971121 2.1374,2.665425 3.3054,3.710515 3.5698,3.194202 0.2161,-0.422066 1.1185,-4.651035 2.0054,-9.397711 l 1.6126,-8.6303191 h 18.0778 18.0778 V 81.62234 158.85638 h -18.0512 -18.0513 l -2.2133,-7.4601 c -1.2174,-4.10306 -2.332,-7.66847 -2.477,-7.92313 -0.145,-0.25467 -2.0212,1.19347 -4.1694,3.21808 -7.121,6.7112 -14.3064,10.65233 -23.8216,13.06607 -6.2914,1.59594 -17.3635,2.67965 -22.7853,2.23017 z m 21.1165,-39.39963 c 2.5455,-0.63919 6.8662,-2.27533 9.6016,-3.63586 4.0382,-2.00854 6.0242,-3.52292 10.5613,-8.05327 4.5969,-4.59003 6.0202,-6.46159 8.0255,-10.55297 3.0952,-6.3153 4.2128,-11.12876 4.2237,-18.190976 0.029,-18.722018 -12.2882,-35.127615 -30.7095,-40.90323 -6.2301,-1.953341 -15.5264,-2.234243 -22.0741,-0.667004 -15.8773,3.80034 -28.5002,16.266582 -32.3703,31.968661 -1.3372,5.425107 -1.347,14.589002 -0.021,19.601064 3.8351,14.496275 16.0892,26.532025 30.9913,30.439145 5.8522,1.53436 15.6489,1.53186 21.7715,-0.006 z"
     id="path9" />
</svg>
