<?xml version="1.0" encoding="UTF-8" standalone="no"?>
<svg
   width="992"
   height="279"
   viewBox="0 0 992 279"
   fill="none"
   version="1.1"
   id="svg2"
   sodipodi:docname="Deezer.svg"
   inkscape:version="1.3.2 (091e20e, 2023-11-25, custom)"
   xmlns:inkscape="http://www.inkscape.org/namespaces/inkscape"
   xmlns:sodipodi="http://sodipodi.sourceforge.net/DTD/sodipodi-0.dtd"
   xmlns="http://www.w3.org/2000/svg"
   xmlns:svg="http://www.w3.org/2000/svg">
  <defs
     id="defs2" />
  <sodipodi:namedview
     id="namedview2"
     pagecolor="#ffffff"
     bordercolor="#000000"
     borderopacity="0.25"
     inkscape:showpageshadow="2"
     inkscape:pageopacity="0.0"
     inkscape:pagecheckerboard="0"
     inkscape:deskcolor="#d1d1d1"
     inkscape:zoom="1.9899194"
     inkscape:cx="496"
     inkscape:cy="139.45289"
     inkscape:window-width="2560"
     inkscape:window-height="1387"
     inkscape:window-x="-8"
     inkscape:window-y="-8"
     inkscape:window-maximized="1"
     inkscape:current-layer="svg2" />
  <path
     fill-rule="evenodd"
     clip-rule="evenodd"
     d="M353.119 68.1904H408.081C442.112 68.1904 466.176 90.8303 466.176 123.01C466.176 155.19 442.112 177.83 408.081 177.83H353.119V68.1904ZM395.836 148.213H405.803C416.482 148.213 422.178 141.094 422.178 123.01C422.178 104.927 416.482 97.8074 405.803 97.8074H395.836V148.213ZM562.999 177.83H472.724V68.1904H562.999V97.8074H515.298V110.48H560.151V134.686H515.298V148.213H562.999V177.83ZM663.525 177.83H573.251V68.1904H663.525V97.8074H615.825V110.48H660.678V134.686H615.825V148.213H663.525V177.83ZM991.164 177.83C985.012 161.065 976.408 143.177 964.834 123.126C978.37 119.156 986.465 110.622 986.465 97.5226C986.465 77.5881 968.097 68.1904 939.049 68.1904H879.246V177.83H921.962V132.478C931.453 148.462 938.445 163.546 943.036 177.83H991.164ZM921.962 117.172V97.8074H936.771C943.036 97.8074 946.596 101.225 946.596 107.49C946.596 113.755 943.036 117.172 936.771 117.172H921.962ZM868.994 177.83H778.719V68.1904H868.994V97.8074H821.294V110.48H866.147V134.686H821.294V148.213H868.994V177.83ZM673.779 97.8074H717.855C699.568 112.77 684.518 129.717 672.924 148.213V177.83H769.891V148.213H721.425C732.531 132.055 748.05 115.965 769.891 97.8074V68.1904H673.779V97.8074Z"
     fill="#fff"
     id="path1" />
  <path
     fill-rule="evenodd"
     clip-rule="evenodd"
     d="M232.97 42.8737C235.539 27.9837 239.309 18.6204 243.485 18.6026H243.493C251.28 18.6294 257.592 51.1012 257.592 91.1924C257.592 131.284 251.271 163.782 243.476 163.782C240.28 163.782 237.331 158.264 234.957 149.017C231.205 182.867 223.419 206.136 214.405 206.136C207.431 206.136 201.172 192.158 196.97 170.114C194.101 212.038 186.88 241.783 178.44 241.783C173.143 241.783 168.314 229.996 164.739 210.804C160.44 250.421 150.508 278.18 138.926 278.18C127.344 278.18 117.394 250.43 113.113 210.804C109.564 229.996 104.735 241.783 99.4118 241.783C90.9722 241.783 83.7686 212.038 80.8818 170.114C76.6797 192.158 70.4383 206.136 63.4465 206.136C54.442 206.136 46.6469 182.875 42.895 149.017C40.5379 158.291 37.5717 163.782 34.376 163.782C26.5809 163.782 20.26 131.284 20.26 91.1924C20.26 51.1012 26.5809 18.6026 34.376 18.6026C38.5604 18.6026 42.3035 27.9926 44.8989 42.8737C49.0569 17.1985 55.8103 0.510986 63.4465 0.510986C72.5129 0.510986 80.3698 24.1114 84.0864 58.3808C87.7235 33.4389 93.241 17.5383 99.4206 17.5383C108.081 17.5383 115.443 48.8118 118.171 92.4355C123.3 70.0692 130.725 56.0377 138.944 56.0377C147.162 56.0377 154.587 70.0781 159.707 92.4355C162.444 48.8118 169.797 17.5383 178.458 17.5383C184.628 17.5383 190.137 33.4389 193.792 58.3808C197.5 24.1114 205.357 0.510986 214.423 0.510986C222.033 0.510986 228.812 17.2075 232.97 42.8737ZM0.0891113 84.0528C0.0891113 66.1311 3.67328 51.5989 8.0961 51.5989C12.5189 51.5989 16.1031 66.1311 16.1031 84.0528C16.1031 101.974 12.5189 116.507 8.0961 116.507C3.67328 116.507 0.0891113 101.974 0.0891113 84.0528ZM261.743 84.0528C261.743 66.1311 265.327 51.5989 269.75 51.5989C274.172 51.5989 277.757 66.1311 277.757 84.0528C277.757 101.974 274.172 116.507 269.75 116.507C265.327 116.507 261.743 101.974 261.743 84.0528Z"
     fill="#A238FF"
     id="path2" />
  <path
     style="fill:#ffffff;stroke-width:3.0152;stroke-linecap:round;stroke-linejoin:round;stroke-miterlimit:3.8;stroke-dashoffset:26.4"
     d="m 136.81357,277.42302 c -2.90767,-1.01919 -5.10533,-2.96018 -7.55834,-6.67557 -6.33199,-9.59058 -11.33715,-26.79938 -14.67265,-50.4476 -0.71266,-5.05263 -1.38133,-9.27219 -1.48594,-9.37679 -0.1046,-0.10462 -0.4514,1.12804 -0.77064,2.73921 -2.6535,13.39172 -6.71123,23.87773 -10.34637,26.73714 -1.88083,1.47946 -3.393172,1.33659 -5.508097,-0.52033 -6.554959,-5.75534 -12.111727,-30.04409 -15.079863,-65.91443 -0.178947,-2.1626 -0.429655,-3.82771 -0.557128,-3.70024 -0.127472,0.12748 -0.805847,2.80144 -1.507503,5.94214 -4.135268,18.51006 -10.141727,29.58068 -16.049252,29.58068 -7.457845,0 -14.965023,-18.9549 -18.873135,-47.65287 -0.589984,-4.33236 -1.181742,-8.21622 -1.315016,-8.63081 -0.133274,-0.41459 -0.742475,0.82918 -1.353781,2.76393 -2.134298,6.75494 -5.095645,11.30699 -7.355802,11.30699 -1.771085,0 -4.272306,-3.1703 -5.965785,-7.56164 C 20.029444,134.27026 17.91655,78.894448 24.110514,43.217832 26.768478,27.908218 30.647107,18.844985 34.540922,18.844985 c 1.373312,0 3.515144,2.444864 5.130324,5.856176 1.36177,2.876102 4.802918,15.330121 4.802918,17.382465 0,2.089318 0.845222,0.1157 1.451198,-3.388591 C 50.34389,13.14317 58.202708,-1.7996687 65.609105,1.2681612 72.692906,4.2023684 79.955934,25.705248 83.222538,53.414411 c 0.3353,2.844185 0.760906,4.992514 0.945798,4.774063 0.184891,-0.218451 0.732557,-2.971613 1.217044,-6.118133 1.689008,-10.969407 4.892273,-22.400547 7.990364,-28.514332 1.511589,-2.982977 4.416546,-5.71609 6.075492,-5.71609 6.122664,0 12.232794,18.018538 15.848144,46.735562 1.04175,8.274707 2.53729,24.067272 2.54207,26.843636 0.004,2.30749 0.38527,1.402348 2.22311,-5.277315 4.20555,-15.285147 9.36313,-25.299713 14.6145,-28.37722 8.52931,-4.998504 16.74369,5.067582 23.15709,28.37722 0.94414,3.431481 1.78614,6.308588 1.87112,6.393566 0.085,0.08497 0.54859,-4.531721 1.03025,-10.25933 2.11074,-25.099575 5.85012,-45.197487 10.47744,-56.312829 1.85121,-4.446807 5.05579,-8.12329 7.0806,-8.12329 3.42012,0 7.55427,6.686675 10.37472,16.780304 1.62412,5.812242 4.55363,20.044701 4.55363,22.12287 0,0.682078 0.18671,1.355538 0.41491,1.496574 0.2282,0.141031 0.68339,-2.053244 1.01153,-4.876178 2.76472,-23.784337 9.0992,-44.8155134 15.14269,-50.2754438 3.44058,-3.10835945 5.74342,-3.05670146 9.28552,0.2082957 4.37513,4.0328501 8.94756,15.7668891 11.84158,30.3885231 0.87364,4.413953 1.70938,8.364579 1.85721,8.779168 0.14782,0.41459 0.80115,-1.677481 1.45183,-4.649046 4.54815,-20.770802 10.49154,-24.636079 15.70916,-10.216456 4.6313,12.799219 7.22811,35.652521 7.22811,63.611196 0,27.229464 -2.23428,47.878884 -6.69842,61.907124 -4.33383,13.61882 -9.63531,13.75629 -13.86895,0.35965 -1.48237,-4.69071 -2.16239,-5.57935 -2.17499,-2.84225 -0.004,0.89827 -0.55267,5.25146 -1.21898,9.67375 -4.18571,27.78054 -11.41715,45.47923 -18.58219,45.47923 -6.17024,0 -11.81849,-10.60961 -16.39588,-30.79785 -0.61322,-2.70457 -1.19176,-4.8406 -1.28564,-4.74672 -0.0939,0.0939 -0.52772,4.11584 -0.96408,8.93768 -2.95896,32.69683 -8.37534,55.27894 -14.56158,60.71053 -2.18585,1.91921 -3.70438,1.98968 -5.75178,0.2669 -3.67148,-3.08934 -7.25969,-12.53141 -10.10152,-26.58128 -0.71981,-3.5587 -1.15584,-2.9172 -1.70784,2.51267 -0.53529,5.26538 -3.1107,20.07982 -4.56118,26.237 -4.1665,17.68657 -10.33882,30.79333 -16.02762,34.03421 -2.81141,1.60165 -4.24222,1.83729 -6.45223,1.06265 z"
     id="path3" />
  <path
     style="fill:#ffffff;stroke-width:3.0152;stroke-linecap:round;stroke-linejoin:round;stroke-miterlimit:3.8;stroke-dashoffset:26.4"
     d="m 6.1141066,114.83661 c -7.4357183,-8.83685 -7.65757,-51.033221 -0.3224719,-61.334416 2.2611921,-3.175552 5.0366443,-1.018458 7.0415703,5.472738 4.250729,13.762258 3.752916,42.187628 -0.925361,52.838648 -1.11291,2.53375 -2.8026454,4.52279 -3.8422217,4.52279 -0.379253,0 -1.2574353,-0.67489 -1.9515157,-1.49976 z"
     id="path4" />
  <path
     style="fill:#ffffff;stroke-width:3.0152;stroke-linecap:round;stroke-linejoin:round;stroke-miterlimit:3.8;stroke-dashoffset:26.4"
     d="m 267.84056,115.02231 c -3.80311,-4.10362 -6.11573,-18.406963 -5.62981,-34.819892 0.41368,-13.97305 2.42685,-23.489048 5.77779,-27.310827 2.00317,-2.284639 4.57992,0.0047 6.3648,5.654808 5.2046,16.4755 3.5268,49.869011 -2.84644,56.653011 -1.38299,1.47213 -2.17327,1.43395 -3.66634,-0.1771 z"
     id="path5" />
</svg>
