<?xml version="1.0" encoding="UTF-8" standalone="no"?>
<svg
   viewBox="0 0 91 34"
   fill="none"
   version="1.1"
   id="svg2"
   sodipodi:docname="logo-udemy.svg"
   inkscape:version="1.3.2 (091e20e, 2023-11-25, custom)"
   xmlns:inkscape="http://www.inkscape.org/namespaces/inkscape"
   xmlns:sodipodi="http://sodipodi.sourceforge.net/DTD/sodipodi-0.dtd"
   xmlns="http://www.w3.org/2000/svg"
   xmlns:svg="http://www.w3.org/2000/svg">
  <defs
     id="defs2" />
  <sodipodi:namedview
     id="namedview2"
     pagecolor="#ffffff"
     bordercolor="#000000"
     borderopacity="0.25"
     inkscape:showpageshadow="2"
     inkscape:pageopacity="0.0"
     inkscape:pagecheckerboard="0"
     inkscape:deskcolor="#d1d1d1"
     inkscape:zoom="21.692308"
     inkscape:cx="45.5"
     inkscape:cy="16.987589"
     inkscape:window-width="2560"
     inkscape:window-height="1387"
     inkscape:window-x="-8"
     inkscape:window-y="-8"
     inkscape:window-maximized="1"
     inkscape:current-layer="svg2" />
  <path
     d="M14.05 8.112L7.024 4.056 0 8.112V4.056L7.025 0l7.026 4.056v4.056h-.001z"
     fill="#A435F0"
     id="path1" />
  <path
     d="M0 11.518h3.68v8.941c0 2.31 1.725 3.436 3.345 3.436 1.634 0 3.346-1.156 3.346-3.467v-8.91h3.68v9.154c0 2.128-.669 3.77-2.007 4.896-1.339 1.125-3.011 1.673-5.05 1.673-2.037 0-3.71-.547-5.017-1.673C.669 24.443 0 22.862 0 20.763v-9.245zM45.866 22.63c-1.114.992-2.383 1.478-3.83 1.478-2.64 0-4.41-1.504-4.61-3.833h11.89s.08-.752.08-1.458c0-2.19-.7-4.015-2.13-5.505-1.398-1.49-3.222-2.22-5.443-2.22-2.341 0-4.258.73-5.779 2.22-1.49 1.49-2.25 3.436-2.25 5.87v.12c0 2.403.76 4.319 2.25 5.749 1.49 1.429 3.467 2.159 5.87 2.159 2.794 0 5.017-1.102 6.685-3.002l-2.733-1.578zm-6.994-7.463c.82-.639 1.825-.973 2.95-.973 1.064 0 1.946.334 2.707 1.004.726.61 1.118 1.359 1.152 2.22H37.52c.118-.89.568-1.64 1.353-2.25zM82.91 29.276C81.417 32.801 79.855 34 77.46 34H75.8v-3.262h1.342c.824 0 1.59-.31 2.32-1.994l.73-1.686-6.296-15.54h3.741l4.471 11.192 4.593-11.192h3.74l-7.53 17.758zM28.377 5.649v7.257c-1.206-1.08-3.082-1.723-4.896-1.723-2.16 0-3.984.76-5.474 2.31-1.46 1.521-2.19 3.406-2.19 5.687 0 2.282.73 4.167 2.19 5.718 1.49 1.521 3.315 2.282 5.474 2.282 2.49 0 4.064-.979 4.896-1.746v1.411h3.65V5.65h-3.65zm-1.095 16.878c-.882.882-2.007 1.339-3.315 1.339-1.308 0-2.372-.457-3.254-1.339-.85-.882-1.277-2.007-1.277-3.345 0-1.339.426-2.464 1.277-3.346.882-.882 1.946-1.338 3.254-1.338s2.433.456 3.315 1.338c.912.882 1.37 2.007 1.37 3.346 0 1.338-.458 2.463-1.37 3.345zM68.222 11.214c-2.772 0-4.213 1.15-5.2 2.258-.395-.753-1.507-2.258-4.105-2.258-2.196 0-3.49 1.11-4.136 1.9V11.52h-3.618v15.327h3.618v-8.82c0-2.068 1.278-3.558 2.98-3.558 1.735 0 2.738 1.308 2.738 3.406v8.971h3.619v-8.82c0-2.098 1.246-3.558 3.04-3.558 1.734 0 2.737 1.308 2.737 3.405v8.972h3.65v-9.488c0-3.996-2.148-6.142-5.323-6.142z"
     fill="#000"
     id="path2" />
  <path
     style="fill:#ffffff;stroke-width:0.276596;stroke-linecap:round;stroke-linejoin:round;stroke-miterlimit:3.8;stroke-dashoffset:26.4"
     d="M 0.03408477,6.0519923 0.04609929,4.0596581 3.5363045,2.0445674 7.0265097,0.02947666 10.520347,2.0470154 l 3.493837,2.0175386 0.01201,1.9898862 c 0.0066,1.0944373 2.92e-4,1.989886 -0.01404,1.989886 -0.01433,0 -1.591974,-0.9037305 -3.505881,-2.0082893 L 7.0264516,4.0277473 6.6479773,4.2452835 C 6.4398169,4.3649285 4.8741338,5.2686589 3.1686816,6.253573 1.4632295,7.2384871 0.05755703,8.0443262 0.04496495,8.0443262 c -0.01259208,0 -0.01748816,-0.8965505 -0.01088018,-1.9923339 z"
     id="path3" />
  <path
     style="fill:#ffffff;stroke-width:0.276596;stroke-linecap:round;stroke-linejoin:round;stroke-miterlimit:3.8;stroke-dashoffset:26.4"
     d="M 5.9747963,27.168937 C 4.2734565,26.991096 2.793837,26.336596 1.7381348,25.294878 0.76370321,24.333353 0.24823049,23.210863 0.07112046,21.664799 0.0417087,21.408052 0.02366301,19.415915 0.02342788,16.399823 l -3.7823e-4,-4.851951 h 1.81969705 1.819697 l 0.013433,4.828901 c 0.015067,5.416325 -0.011187,5.001229 0.3651967,5.773936 0.1539441,0.316044 0.2675561,0.468086 0.5873078,0.785967 0.6389823,0.635246 1.2791406,0.910448 2.2173635,0.953239 1.6656803,0.07597 2.9805916,-0.852495 3.4236883,-2.417478 0.10139,-0.358098 0.101667,-0.370465 0.115227,-5.141763 l 0.01359,-4.782802 h 1.81949 1.819491 l -1.58e-4,4.690603 c -1.62e-4,4.848657 -0.01637,5.37078 -0.192069,6.187857 -0.389044,1.809216 -1.508458,3.201907 -3.24217,4.033665 -1.285613,0.616779 -2.9989263,0.879231 -4.6280407,0.70894 z"
     id="path4" />
  <path
     style="fill:#ffffff;stroke-width:0.276596;stroke-linecap:round;stroke-linejoin:round;stroke-miterlimit:3.8;stroke-dashoffset:26.4"
     d="m 22.804508,27.125898 c -1.329483,-0.102054 -2.628783,-0.567117 -3.696181,-1.322985 -0.526121,-0.372567 -1.352756,-1.185345 -1.722005,-1.693136 -0.753156,-1.035741 -1.211192,-2.147756 -1.443039,-3.503394 -0.119107,-0.696436 -0.107951,-2.264452 0.02116,-2.973404 0.323063,-1.774026 1.051971,-3.142021 2.321209,-4.356383 1.061081,-1.015205 2.192572,-1.616133 3.617135,-1.921037 0.440762,-0.09434 0.627046,-0.107332 1.538707,-0.107332 0.897492,0 1.107139,0.01417 1.5561,0.105163 1.187325,0.240646 2.284585,0.720895 3.085938,1.350653 0.158734,0.124745 0.299425,0.226808 0.312646,0.226808 0.01322,0 0.02404,-1.628457 0.02404,-3.6187943 V 5.6932624 h 1.797872 1.797872 V 16.25 26.806738 H 30.21809 28.420218 v -0.69149 c 0,-0.380319 -0.01262,-0.691489 -0.02804,-0.691489 -0.01542,0 -0.155448,0.100213 -0.31117,0.222697 -0.856906,0.673996 -1.825181,1.118756 -2.922362,1.342334 -0.400578,0.08163 -1.544753,0.196966 -1.786303,0.180068 -0.05071,-0.0035 -0.306233,-0.02288 -0.567832,-0.04296 z m 1.72795,-3.272695 c 2.229456,-0.2486 3.946711,-1.993071 4.108275,-4.173386 0.1096,-1.479061 -0.239212,-2.6135 -1.116577,-3.631435 -0.546289,-0.633815 -1.450233,-1.196158 -2.284794,-1.421366 -0.347475,-0.09377 -0.493632,-0.10548 -1.29078,-0.103447 -0.843033,0.0021 -0.924113,0.01005 -1.303773,0.126996 -1.058415,0.326031 -1.894528,0.949711 -2.484127,1.852981 -0.32565,0.498898 -0.506812,0.950434 -0.639533,1.593997 -0.08605,0.417277 -0.09609,0.583545 -0.07626,1.264159 0.01915,0.657673 0.0423,0.854108 0.143953,1.221631 0.491514,1.777053 1.968529,3.059509 3.763133,3.267439 0.494724,0.05732 0.68472,0.05771 1.180487,0.0024 z"
     id="path5" />
  <path
     style="fill:#ffffff;stroke-width:0.276596;stroke-linecap:round;stroke-linejoin:round;stroke-miterlimit:3.8;stroke-dashoffset:26.4"
     d="m 40.728723,27.124698 c -3.375665,-0.379526 -5.922861,-2.532507 -6.659932,-5.629211 -0.186345,-0.782902 -0.23201,-1.23972 -0.22943,-2.295132 0.004,-1.62426 0.245027,-2.757378 0.8385,-3.94149 1.150959,-2.296422 3.336291,-3.771819 6.046707,-4.082351 0.775704,-0.08887 2.155951,-0.03313 2.857188,0.115388 1.323834,0.280381 2.418501,0.850369 3.358173,1.748585 1.142853,1.092433 1.819311,2.237491 2.176243,3.683782 0.07641,0.309631 0.160479,0.739295 0.186809,0.954809 0.05364,0.439021 0.06454,1.829416 0.01791,2.284543 l -0.03043,0.297017 h -5.945754 -5.945754 l 0.03306,0.264603 c 0.04683,0.374853 0.230277,0.981138 0.398313,1.316446 0.528061,1.053718 1.471557,1.790316 2.690953,2.100859 1.819534,0.463379 3.764771,0.04629 5.141895,-1.102512 l 0.209271,-0.174575 1.312006,0.757927 c 0.721603,0.416859 1.318268,0.776214 1.325924,0.798567 0.02091,0.06106 -0.742929,0.80341 -1.164754,1.131976 -1.282426,0.998902 -2.758426,1.598038 -4.367738,1.772949 -0.515189,0.05599 -1.742312,0.0548 -2.249158,-0.0022 z m 4.977924,-9.77984 c -0.002,-0.255404 -0.150993,-0.779856 -0.317651,-1.117908 -0.412661,-0.837048 -1.346454,-1.581384 -2.378358,-1.895813 -0.381654,-0.116293 -0.477679,-0.126517 -1.198581,-0.127614 -0.873511,-0.0013 -1.28194,0.07141 -1.940661,0.34564 -0.735196,0.306063 -1.593462,1.019455 -1.946468,1.617907 -0.170716,0.289415 -0.355988,0.787779 -0.403632,1.085732 l -0.03131,0.19578 h 4.108729 4.108729 z"
     id="path6" />
  <path
     style="fill:#ffffff;stroke-width:0.276596;stroke-linecap:round;stroke-linejoin:round;stroke-miterlimit:3.8;stroke-dashoffset:26.4"
     d="m 51.193262,19.177305 v -7.629433 h 1.774823 1.774823 v 0.783688 c 0,0.431029 0.01163,0.783688 0.02584,0.783688 0.01421,0 0.190365,-0.164521 0.391446,-0.365602 0.858893,-0.858893 1.909804,-1.341904 3.231553,-1.48526 0.886133,-0.09611 1.941172,0.0687 2.702843,0.422222 0.672492,0.312128 1.382329,0.934122 1.742285,1.526674 0.09046,0.148919 0.172091,0.270761 0.181396,0.270761 0.0093,0 0.179604,-0.162686 0.378442,-0.361523 1.135618,-1.135619 2.424344,-1.710162 4.166626,-1.857577 2.77915,-0.235144 4.811466,1.060593 5.593752,3.566392 0.335121,1.073448 0.317053,0.715558 0.33518,6.63941 l 0.01633,5.335993 h -1.799514 -1.799515 l -1.85e-4,-4.713653 c -1.98e-4,-5.022154 -0.0059,-5.168793 -0.226649,-5.809677 -0.227344,-0.660081 -0.692059,-1.255278 -1.187653,-1.521117 -0.535027,-0.286992 -1.342239,-0.383769 -2.013958,-0.241456 -0.824474,0.174678 -1.542928,0.748732 -1.93584,1.54676 -0.118052,0.239773 -0.260825,0.601909 -0.317272,0.804745 l -0.10263,0.368795 -0.01359,4.782801 -0.01359,4.782802 H 62.302968 60.50773 l -0.01312,-4.9211 -0.01312,-4.921099 -0.103064,-0.368794 c -0.372665,-1.333504 -1.180376,-2.053797 -2.388315,-2.129831 -0.561349,-0.03533 -0.969434,0.04123 -1.449331,0.27191 -0.953638,0.458407 -1.605894,1.490729 -1.748009,2.766565 -0.0323,0.289958 -0.04986,2.007257 -0.04986,4.875 v 4.427349 h -1.774823 -1.774823 z"
     id="path7" />
  <path
     style="fill:#ffffff;stroke-width:0.276596;stroke-linecap:round;stroke-linejoin:round;stroke-miterlimit:3.8;stroke-dashoffset:26.4"
     d="m 75.810284,32.384752 v -1.613475 h 0.754346 c 0.41489,0 0.864569,-0.0209 0.999287,-0.04645 0.711615,-0.134956 1.258696,-0.629924 1.724397,-1.560139 0.25296,-0.505275 0.901402,-2.022583 0.901402,-2.109216 0,-0.04147 -1.392652,-3.511337 -3.094783,-7.710822 -1.702131,-4.199486 -3.104879,-7.671972 -3.117218,-7.716636 -0.02119,-0.0767 0.07936,-0.08054 1.813266,-0.06915 l 1.835702,0.01206 2.23569,5.589621 c 1.22963,3.074291 2.248709,5.574025 2.26462,5.554964 0.01591,-0.01906 1.054219,-2.53922 2.307351,-5.600353 l 2.278422,-5.565697 1.832447,-7.92e-4 c 1.007846,-4.36e-4 1.832447,0.01043 1.832447,0.02415 0,0.09577 -7.646664,18.048072 -7.95165,18.668325 -0.624457,1.26996 -1.290757,2.190053 -1.98612,2.742633 -0.993822,0.789753 -1.837582,1.014328 -3.811344,1.01442 l -0.818262,3.9e-5 z"
     id="path8" />
</svg>
