<?xml version="1.0" encoding="UTF-8" standalone="no"?>
<svg
   id="Icons_Cisco_Logo"
   data-name="Icons/Cisco_Logo"
   width="173.207"
   height="39.92"
   viewBox="0 0 173.207 39.92"
   version="1.1"
   sodipodi:docname="netacad_logo_black.svg"
   inkscape:version="1.3.2 (091e20e, 2023-11-25, custom)"
   xmlns:inkscape="http://www.inkscape.org/namespaces/inkscape"
   xmlns:sodipodi="http://sodipodi.sourceforge.net/DTD/sodipodi-0.dtd"
   xmlns="http://www.w3.org/2000/svg"
   xmlns:svg="http://www.w3.org/2000/svg">
  <sodipodi:namedview
     id="namedview1"
     pagecolor="#ffffff"
     bordercolor="#000000"
     borderopacity="0.25"
     inkscape:showpageshadow="2"
     inkscape:pageopacity="0.0"
     inkscape:pagecheckerboard="0"
     inkscape:deskcolor="#d1d1d1"
     inkscape:zoom="8.0587319"
     inkscape:cx="94.55582"
     inkscape:cy="25.872557"
     inkscape:window-width="2560"
     inkscape:window-height="1387"
     inkscape:window-x="-8"
     inkscape:window-y="-8"
     inkscape:window-maximized="1"
     inkscape:current-layer="Icons_Cisco_Logo" />
  <defs
     id="defs1">
    <clipPath
       id="clip-path">
      <path
         id="Mask"
         d="M8.508,34.653A6.1,6.1,0,0,1,6.3,28.237a5.968,5.968,0,0,1,4.911-4.542,8.526,8.526,0,0,1,3.581.209.523.523,0,0,1,.449.6c-.017.89-.006,1.78-.006,2.687-.787-.194-1.457-.407-2.144-.52a3.143,3.143,0,0,0-3.456,2,3.078,3.078,0,0,0,1.422,3.8,4.215,4.215,0,0,0,3.595-.009c.548-.216.58-.206.583.38,0,.737.022,1.476-.017,2.211a.673.673,0,0,1-.347.51,9.054,9.054,0,0,1-2.454.365A6.471,6.471,0,0,1,8.508,34.653Zm19.212,1.166a8.682,8.682,0,0,1-1.112-.168c-.146-.037-.363-.208-.368-.325-.032-.811-.017-1.624-.017-2.5a18.3,18.3,0,0,0,1.971.326,11.14,11.14,0,0,0,2.048-.091.893.893,0,0,0,.862-.8.913.913,0,0,0-.69-.994c-.741-.3-1.5-.54-2.223-.882a3.126,3.126,0,0,1-2.031-3.2,3.45,3.45,0,0,1,2.625-3.344,8.656,8.656,0,0,1,4.41.068.573.573,0,0,1,.339.415c.039.61.019,1.223.017,1.835,0,.377-.222.357-.512.32-.742-.1-1.487-.183-2.234-.215a1.722,1.722,0,0,0-.9.214.755.755,0,0,0-.07,1.35,9.166,9.166,0,0,0,1.526.592,3.95,3.95,0,0,1,2.772,2.262,3.674,3.674,0,0,1-2.249,4.806,7.218,7.218,0,0,1-2.585.433A13.964,13.964,0,0,1,27.721,35.819ZM38.652,33.85a5.472,5.472,0,0,1-1.41-3.025,6.165,6.165,0,0,1,1.329-5.068,5.817,5.817,0,0,1,4.3-2.123,18.107,18.107,0,0,1,2.885.253c.35.036.505.23.5.6-.019.888-.006,1.777-.006,2.671-.75-.177-1.422-.374-2.107-.489a3.188,3.188,0,0,0-3.455,1.936,3.128,3.128,0,0,0,1.342,3.84,4.083,4.083,0,0,0,3.108.2c.33-.086.65-.214,1.04-.345a2.3,2.3,0,0,1,.068.37c.006.8,0,1.6.005,2.4a.448.448,0,0,1-.365.515,10.041,10.041,0,0,1-2.441.329A6.333,6.333,0,0,1,38.652,33.85Zm16.892,2.063a5.976,5.976,0,0,1-6.267-6.122,6.024,6.024,0,0,1,1.7-4.349,6.373,6.373,0,0,1,4.592-1.85h.1a6.293,6.293,0,0,1,4.377,1.813,6.16,6.16,0,0,1-4.491,10.506Zm-3.006-6.16a3.075,3.075,0,0,0,.895,2.193,2.954,2.954,0,0,0,2.107.877h.009a2.96,2.96,0,0,0,3-3.017,2.921,2.921,0,0,0-2.95-3.087h-.019A2.942,2.942,0,0,0,52.538,29.752ZM19.177,35.2q.007-5.46,0-10.919c0-.369.176-.5.523-.491.688.01,1.378.016,2.066,0,.39-.011.521.151.519.53-.011,1.8,0,3.608,0,5.412q0,2.66,0,5.319c0,.59-.03.617-.605.62-.256,0-.512,0-.768,0-.417,0-.835,0-1.252.005h-.023C19.308,35.674,19.176,35.535,19.177,35.2Zm46.208-.42a3.19,3.19,0,0,0-.438-.681c.529,0,1.085-.017,1.64.018.087.005.169.239.234.377.078.165.137.34.254.643a8.935,8.935,0,0,1,.363-.817c.059-.1.2-.159.3-.237.068.108.191.215.195.326.015.4-.01.808-.02,1.213l-.231.023-.16-.619-.418.6c-.179-.233-.357-.466-.532-.695-.027.2-.058.43-.09.659L66.3,35.6c-.033-.408-.067-.816-.1-1.267-.925.1-.212.962-.747,1.326A4.042,4.042,0,0,0,65.385,34.782ZM49,18.113a1.851,1.851,0,0,1-.31-.958q-.029-7.764-.008-15.529a1.468,1.468,0,0,1,.928-1.5A1.4,1.4,0,0,1,51.28.49a2.107,2.107,0,0,1,.4,1.149c.035,2.571.018,5.144.017,7.716q0,3.93,0,7.859a1.526,1.526,0,0,1-1.024,1.435A1.475,1.475,0,0,1,49,18.113Zm-32.645-.358a1.865,1.865,0,0,1-.1-.644q-.009-7.72,0-15.44a1.519,1.519,0,1,1,3.021.019q0,3.861,0,7.721c0,2.6,0,5.209,0,7.814A1.538,1.538,0,0,1,18.059,18.7a1.65,1.65,0,0,1-.286.025A1.492,1.492,0,0,1,16.358,17.755Zm-7.326-2.11A1.592,1.592,0,0,1,8.1,14.124c-.019-2.3-.04-4.61,0-6.914a1.541,1.541,0,1,1,3.079-.022c.011,1.16,0,2.32,0,3.48,0,1.176.02,2.353-.007,3.528a1.557,1.557,0,0,1-1.507,1.6A1.5,1.5,0,0,1,9.032,15.645Zm55.9-1.2a26.055,26.055,0,0,1,.026-3.6,1.323,1.323,0,0,1,1.42-1.172,1.461,1.461,0,0,1,1.495,1.11,1.067,1.067,0,0,1,.057.275c.006.564,0,1.128,0,1.691h.017c0,.485.014.972,0,1.457a1.551,1.551,0,0,1-1.427,1.586q-.068.007-.136.007A1.457,1.457,0,0,1,64.928,14.441Zm-40.582-.234q-.015-3.5,0-7a1.511,1.511,0,0,1,1.935-1.568A1.415,1.415,0,0,1,27.36,7.053c.007,1.207,0,2.414,0,3.621,0,1.175,0,2.35,0,3.525a1.521,1.521,0,0,1-1.444,1.592h-.034A1.541,1.541,0,0,1,24.346,14.207Zm17.707,1.584a1.516,1.516,0,0,1-1.462-1.576c-.007-1.175,0-2.35,0-3.526,0-1.159,0-2.319,0-3.479a1.512,1.512,0,1,1,3.014-.025q.017,3.525,0,7.052a1.539,1.539,0,0,1-1.538,1.555ZM.732,15.544A1.515,1.515,0,0,1,.012,14.2c-.023-.485,0-.972,0-1.459s-.012-.973,0-1.46A1.528,1.528,0,0,1,1.4,9.666a1.449,1.449,0,0,1,1.672,1.448,19.583,19.583,0,0,1-.012,3.194,1.5,1.5,0,0,1-1.462,1.481A1.721,1.721,0,0,1,.732,15.544Zm31.927-.55a2.269,2.269,0,0,1-.22-.9c-.028-.94-.027-1.882-.006-2.822a1.526,1.526,0,0,1,1.677-1.606,1.367,1.367,0,0,1,1.324,1.184,18.117,18.117,0,0,1,.125,1.87l-.047,0c0,.517.032,1.037-.007,1.551a1.533,1.533,0,0,1-1.27,1.489,1.277,1.277,0,0,1-.26.026A1.493,1.493,0,0,1,32.659,14.994Zm24.858.567a1.508,1.508,0,0,1-.752-1.42c-.015-1.159,0-2.318,0-3.477,0-1.128-.005-2.255,0-3.383a1.554,1.554,0,1,1,3.095-.034c.015,2.286.025,4.574,0,6.86a1.56,1.56,0,0,1-1.5,1.681A1.723,1.723,0,0,1,57.517,15.561Z"
         transform="translate(0 0)"
         fill="#fff" />
    </clipPath>
  </defs>
  <g
     id="Colors_White"
     data-name="Colors/White"
     transform="translate(0 0)"
     opacity="0">
    <path
       id="Mask-2"
       data-name="Mask"
       d="M8.508,34.653A6.1,6.1,0,0,1,6.3,28.237a5.968,5.968,0,0,1,4.911-4.542,8.526,8.526,0,0,1,3.581.209.523.523,0,0,1,.449.6c-.017.89-.006,1.78-.006,2.687-.787-.194-1.457-.407-2.144-.52a3.143,3.143,0,0,0-3.456,2,3.078,3.078,0,0,0,1.422,3.8,4.215,4.215,0,0,0,3.595-.009c.548-.216.58-.206.583.38,0,.737.022,1.476-.017,2.211a.673.673,0,0,1-.347.51,9.054,9.054,0,0,1-2.454.365A6.471,6.471,0,0,1,8.508,34.653Zm19.212,1.166a8.682,8.682,0,0,1-1.112-.168c-.146-.037-.363-.208-.368-.325-.032-.811-.017-1.624-.017-2.5a18.3,18.3,0,0,0,1.971.326,11.14,11.14,0,0,0,2.048-.091.893.893,0,0,0,.862-.8.913.913,0,0,0-.69-.994c-.741-.3-1.5-.54-2.223-.882a3.126,3.126,0,0,1-2.031-3.2,3.45,3.45,0,0,1,2.625-3.344,8.656,8.656,0,0,1,4.41.068.573.573,0,0,1,.339.415c.039.61.019,1.223.017,1.835,0,.377-.222.357-.512.32-.742-.1-1.487-.183-2.234-.215a1.722,1.722,0,0,0-.9.214.755.755,0,0,0-.07,1.35,9.166,9.166,0,0,0,1.526.592,3.95,3.95,0,0,1,2.772,2.262,3.674,3.674,0,0,1-2.249,4.806,7.218,7.218,0,0,1-2.585.433A13.964,13.964,0,0,1,27.721,35.819ZM38.652,33.85a5.472,5.472,0,0,1-1.41-3.025,6.165,6.165,0,0,1,1.329-5.068,5.817,5.817,0,0,1,4.3-2.123,18.107,18.107,0,0,1,2.885.253c.35.036.505.23.5.6-.019.888-.006,1.777-.006,2.671-.75-.177-1.422-.374-2.107-.489a3.188,3.188,0,0,0-3.455,1.936,3.128,3.128,0,0,0,1.342,3.84,4.083,4.083,0,0,0,3.108.2c.33-.086.65-.214,1.04-.345a2.3,2.3,0,0,1,.068.37c.006.8,0,1.6.005,2.4a.448.448,0,0,1-.365.515,10.041,10.041,0,0,1-2.441.329A6.333,6.333,0,0,1,38.652,33.85Zm16.892,2.063a5.976,5.976,0,0,1-6.267-6.122,6.024,6.024,0,0,1,1.7-4.349,6.373,6.373,0,0,1,4.592-1.85h.1a6.293,6.293,0,0,1,4.377,1.813,6.16,6.16,0,0,1-4.491,10.506Zm-3.006-6.16a3.075,3.075,0,0,0,.895,2.193,2.954,2.954,0,0,0,2.107.877h.009a2.96,2.96,0,0,0,3-3.017,2.921,2.921,0,0,0-2.95-3.087h-.019A2.942,2.942,0,0,0,52.538,29.752ZM19.177,35.2q.007-5.46,0-10.919c0-.369.176-.5.523-.491.688.01,1.378.016,2.066,0,.39-.011.521.151.519.53-.011,1.8,0,3.608,0,5.412q0,2.66,0,5.319c0,.59-.03.617-.605.62-.256,0-.512,0-.768,0-.417,0-.835,0-1.252.005h-.023C19.308,35.674,19.176,35.535,19.177,35.2Zm46.208-.42a3.19,3.19,0,0,0-.438-.681c.529,0,1.085-.017,1.64.018.087.005.169.239.234.377.078.165.137.34.254.643a8.935,8.935,0,0,1,.363-.817c.059-.1.2-.159.3-.237.068.108.191.215.195.326.015.4-.01.808-.02,1.213l-.231.023-.16-.619-.418.6c-.179-.233-.357-.466-.532-.695-.027.2-.058.43-.09.659L66.3,35.6c-.033-.408-.067-.816-.1-1.267-.925.1-.212.962-.747,1.326A4.042,4.042,0,0,0,65.385,34.782ZM49,18.113a1.851,1.851,0,0,1-.31-.958q-.029-7.764-.008-15.529a1.468,1.468,0,0,1,.928-1.5A1.4,1.4,0,0,1,51.28.49a2.107,2.107,0,0,1,.4,1.149c.035,2.571.018,5.144.017,7.716q0,3.93,0,7.859a1.526,1.526,0,0,1-1.024,1.435A1.475,1.475,0,0,1,49,18.113Zm-32.645-.358a1.865,1.865,0,0,1-.1-.644q-.009-7.72,0-15.44a1.519,1.519,0,1,1,3.021.019q0,3.861,0,7.721c0,2.6,0,5.209,0,7.814A1.538,1.538,0,0,1,18.059,18.7a1.65,1.65,0,0,1-.286.025A1.492,1.492,0,0,1,16.358,17.755Zm-7.326-2.11A1.592,1.592,0,0,1,8.1,14.124c-.019-2.3-.04-4.61,0-6.914a1.541,1.541,0,1,1,3.079-.022c.011,1.16,0,2.32,0,3.48,0,1.176.02,2.353-.007,3.528a1.557,1.557,0,0,1-1.507,1.6A1.5,1.5,0,0,1,9.032,15.645Zm55.9-1.2a26.055,26.055,0,0,1,.026-3.6,1.323,1.323,0,0,1,1.42-1.172,1.461,1.461,0,0,1,1.495,1.11,1.067,1.067,0,0,1,.057.275c.006.564,0,1.128,0,1.691h.017c0,.485.014.972,0,1.457a1.551,1.551,0,0,1-1.427,1.586q-.068.007-.136.007A1.457,1.457,0,0,1,64.928,14.441Zm-40.582-.234q-.015-3.5,0-7a1.511,1.511,0,0,1,1.935-1.568A1.415,1.415,0,0,1,27.36,7.053c.007,1.207,0,2.414,0,3.621,0,1.175,0,2.35,0,3.525a1.521,1.521,0,0,1-1.444,1.592h-.034A1.541,1.541,0,0,1,24.346,14.207Zm17.707,1.584a1.516,1.516,0,0,1-1.462-1.576c-.007-1.175,0-2.35,0-3.526,0-1.159,0-2.319,0-3.479a1.512,1.512,0,1,1,3.014-.025q.017,3.525,0,7.052a1.539,1.539,0,0,1-1.538,1.555ZM.732,15.544A1.515,1.515,0,0,1,.012,14.2c-.023-.485,0-.972,0-1.459s-.012-.973,0-1.46A1.528,1.528,0,0,1,1.4,9.666a1.449,1.449,0,0,1,1.672,1.448,19.583,19.583,0,0,1-.012,3.194,1.5,1.5,0,0,1-1.462,1.481A1.721,1.721,0,0,1,.732,15.544Zm31.927-.55a2.269,2.269,0,0,1-.22-.9c-.028-.94-.027-1.882-.006-2.822a1.526,1.526,0,0,1,1.677-1.606,1.367,1.367,0,0,1,1.324,1.184,18.117,18.117,0,0,1,.125,1.87l-.047,0c0,.517.032,1.037-.007,1.551a1.533,1.533,0,0,1-1.27,1.489,1.277,1.277,0,0,1-.26.026A1.493,1.493,0,0,1,32.659,14.994Zm24.858.567a1.508,1.508,0,0,1-.752-1.42c-.015-1.159,0-2.318,0-3.477,0-1.128-.005-2.255,0-3.383a1.554,1.554,0,1,1,3.095-.034c.015,2.286.025,4.574,0,6.86a1.56,1.56,0,0,1-1.5,1.681A1.723,1.723,0,0,1,57.517,15.561Z"
       transform="translate(0 0)"
       fill="#fff" />
    <g
       id="Colors_White-2"
       data-name="Colors/White"
       transform="translate(0 0)"
       clip-path="url(#clip-path)">
      <g
         id="Colors_White-3"
         data-name="Colors/White"
         transform="translate(-107.386 -121.554)">
        <rect
           id="Rectangle"
           width="295.948"
           height="296.545"
           fill="#fff" />
      </g>
    </g>
  </g>
  <g
     id="Layer_2"
     data-name="Layer 2"
     transform="translate(0)">
    <g
       id="logo">
      <rect
         id="Rectangle_5120"
         data-name="Rectangle 5120"
         width="2.965"
         height="11.768"
         transform="translate(19.153 23.719)"
         fill="#393a3b" />
      <path
         id="Path_14582"
         data-name="Path 14582"
         d="M69.644,42.025a5.221,5.221,0,0,0-2.5-.611,3.142,3.142,0,1,0,0,6.278,5.306,5.306,0,0,0,2.5-.611v3.154a9.268,9.268,0,0,1-2.708.422,6.115,6.115,0,1,1,0-12.227,9.17,9.17,0,0,1,2.708.422Z"
         transform="translate(-23.581 -14.931)"
         fill="#393a3b" />
      <path
         id="Path_14583"
         data-name="Path 14583"
         d="M18.948,42.025a5.154,5.154,0,0,0-2.494-.611,3.142,3.142,0,1,0,0,6.278,5.245,5.245,0,0,0,2.494-.611v3.154a9.17,9.17,0,0,1-2.708.422,6.115,6.115,0,1,1,0-12.227,9.109,9.109,0,0,1,2.708.422Z"
         transform="translate(-3.879 -14.931)"
         fill="#393a3b" />
      <path
         id="Path_14584"
         data-name="Path 14584"
         d="M86.678,41.428a3.1,3.1,0,1,0,3.057,3.093,3.057,3.057,0,0,0-3.057-3.093m6.217,3.093a6.217,6.217,0,1,1-6.217-6.113,6.04,6.04,0,0,1,6.217,6.113"
         transform="translate(-31.273 -14.921)"
         fill="#393a3b" />
      <path
         id="Path_14585"
         data-name="Path 14585"
         d="M49.969,41.339a10.32,10.32,0,0,0-2.323-.361c-1.223,0-1.834.4-1.834.966,0,.715.868.966,1.357,1.119l.819.257a3.546,3.546,0,0,1,2.806,3.368c0,2.959-2.6,3.949-4.891,3.949a18.609,18.609,0,0,1-3.2-.318V47.612a11.475,11.475,0,0,0,2.806.434c1.473,0,2.152-.428,2.152-1.1s-.611-.935-1.32-1.168l-.611-.208c-1.651-.52-3.057-1.492-3.057-3.442,0-2.2,1.651-3.668,4.383-3.668a12.575,12.575,0,0,1,2.9.379Z"
         transform="translate(-16.585 -14.942)"
         fill="#393a3b" />
      <path
         id="Path_14586"
         data-name="Path 14586"
         d="M2.953,17.23A1.479,1.479,0,0,0,0,17.23v3.087a1.479,1.479,0,0,0,2.953,0Z"
         transform="translate(0 -6.153)"
         fill="#393a3b" />
      <path
         id="Path_14587"
         data-name="Path 14587"
         d="M16.2,10.533a1.473,1.473,0,1,0-2.947,0V17.68a1.473,1.473,0,1,0,2.947,0Z"
         transform="translate(-5.15 -3.515)"
         fill="#393a3b" />
      <path
         id="Path_14588"
         data-name="Path 14588"
         d="M29.437,1.463a1.473,1.473,0,1,0-2.947,0v15.65a1.473,1.473,0,0,0,2.947,0Z"
         transform="translate(-10.296 0.01)"
         fill="#393a3b" />
      <path
         id="Path_14589"
         data-name="Path 14589"
         d="M42.687,10.533a1.473,1.473,0,1,0-2.947,0V17.68a1.473,1.473,0,1,0,2.947,0Z"
         transform="translate(-15.446 -3.515)"
         fill="#393a3b" />
      <path
         id="Path_14590"
         data-name="Path 14590"
         d="M55.919,17.113a1.473,1.473,0,1,0-2.94,0V20.2a1.473,1.473,0,1,0,2.94,0Z"
         transform="translate(-20.59 -6.036)"
         fill="#393a3b" />
      <path
         id="Path_14591"
         data-name="Path 14591"
         d="M69.129,10.594a1.473,1.473,0,0,0-2.94,0V17.74a1.473,1.473,0,1,0,2.94,0Z"
         transform="translate(-25.724 -3.576)"
         fill="#393a3b" />
      <path
         id="Path_14592"
         data-name="Path 14592"
         d="M82.419,1.524a1.473,1.473,0,0,0-2.94,0v15.65a1.473,1.473,0,1,0,2.94,0Z"
         transform="translate(-30.89 -0.05)"
         fill="#393a3b" />
      <path
         id="Path_14593"
         data-name="Path 14593"
         d="M95.663,10.59a1.479,1.479,0,0,0-2.953,0v7.146a1.479,1.479,0,0,0,2.953,0Z"
         transform="translate(-36.034 -3.572)"
         fill="#393a3b" />
      <path
         id="Path_14594"
         data-name="Path 14594"
         d="M108.9,17.113a1.473,1.473,0,1,0-2.94,0V20.2a1.473,1.473,0,1,0,2.94,0Z"
         transform="translate(-41.182 -6.036)"
         fill="#393a3b" />
      <path
         id="Path_14595"
         data-name="Path 14595"
         d="M107.182,55.51v.177h-.526v1.369h-.214V55.687h-.532V55.51Z"
         transform="translate(-41.164 -21.569)"
         fill="#393a3b" />
      <path
         id="Path_14596"
         data-name="Path 14596"
         d="M108.17,55.51h.336l.465,1.265h.006l.452-1.265h.33v1.547h-.22V55.785h-.012l-.471,1.272h-.2l-.459-1.272h-.012v1.272h-.214Z"
         transform="translate(-42.043 -21.569)"
         fill="#393a3b" />
      <path
         id="Path_14597"
         data-name="Path 14597"
         d="M129.07,16.02V2.76h1.871l4.279,6.725a38.29,38.29,0,0,1,2.366,4.292h.037c-.153-1.773-.2-3.387-.2-5.453V2.76h1.614V16.02h-1.73L133.1,9.3a41.575,41.575,0,0,1-2.445-4.426h-.061c.1,1.675.141,3.264.141,5.5v5.667Z"
         transform="translate(-50.166 -1.067)"
         fill="#217da7" />
      <path
         id="Path_14598"
         data-name="Path 14598"
         d="M150.671,13.812a3.053,3.053,0,0,0,3.264,3.307,6.309,6.309,0,0,0,2.641-.489l.293,1.223a7.7,7.7,0,0,1-3.167.611c-2.934,0-4.683-1.932-4.683-4.8s1.693-5.135,4.463-5.135c3.112,0,3.937,2.733,3.937,4.481a5.635,5.635,0,0,1-.061.807Zm5.074-1.223c0-1.106-.452-2.818-2.4-2.818-1.754,0-2.519,1.614-2.659,2.818Z"
         transform="translate(-57.92 -3.309)"
         fill="#217da7" />
      <path
         id="Path_14599"
         data-name="Path 14599"
         d="M167.667,4.4V7.133h2.445v1.3h-2.445V13.57c0,1.18.33,1.834,1.3,1.834a4.028,4.028,0,0,0,1-.116l.079,1.3a4.163,4.163,0,0,1-1.534.238,2.409,2.409,0,0,1-1.871-.7,3.548,3.548,0,0,1-.666-2.482V8.435H164.5v-1.3h1.473V4.852Z"
         transform="translate(-63.937 -1.704)"
         fill="#217da7" />
      <path
         id="Path_14600"
         data-name="Path 14600"
         d="M177.207,8.851l1.259,4.842c.275,1.064.532,2.042.709,3.026h.061c.214-.96.532-1.987.844-3.008l1.553-4.891h1.485l1.473,4.762c.355,1.143.611,2.146.844,3.106h.061a28.659,28.659,0,0,1,.727-3.057l1.357-4.781h1.712l-3.057,9.524h-1.571l-1.5-4.554a31.646,31.646,0,0,1-.844-3.124h-.037a28.786,28.786,0,0,1-.868,3.148l-1.534,4.524h-1.571L175.44,8.844Z"
         transform="translate(-68.189 -3.422)"
         fill="#217da7" />
      <path
         id="Path_14601"
         data-name="Path 14601"
         d="M208.744,13.421a4.656,4.656,0,0,1-4.738,5.056c-2.58,0-4.567-1.889-4.567-4.891,0-3.191,2.085-5.056,4.726-5.056C206.9,8.524,208.744,10.511,208.744,13.421Zm-7.55.1c0,2.085,1.223,3.668,2.892,3.668s2.892-1.559,2.892-3.7c0-1.614-.807-3.668-2.855-3.668S201.195,11.709,201.195,13.518Z"
         transform="translate(-77.517 -3.309)"
         fill="#217da7" />
      <path
         id="Path_14602"
         data-name="Path 14602"
         d="M218.183,11.7c0-1.119,0-2.085-.073-2.971h1.51l.061,1.871h.079A2.855,2.855,0,0,1,222.4,8.52a2.048,2.048,0,0,1,.5.055v1.632a2.794,2.794,0,0,0-.611-.055,2.428,2.428,0,0,0-2.323,2.219,5.234,5.234,0,0,0-.079.807v5.08h-1.712Z"
         transform="translate(-84.774 -3.305)"
         fill="#217da7" />
      <path
         id="Path_14603"
         data-name="Path 14603"
         d="M230.6,10.4h.037c.238-.33.568-.746.844-1.076l2.794-3.289h2.085l-3.668,3.919,4.212,5.612h-2.1l-3.319-4.554L230.6,12v3.582H228.89V1.6H230.6Z"
         transform="translate(-88.964 -0.616)"
         fill="#217da7" />
      <path
         id="Path_14604"
         data-name="Path 14604"
         d="M246.316,3.8a1.076,1.076,0,0,1-2.146,0,1.058,1.058,0,0,1,1.082-1.082A1.033,1.033,0,0,1,246.316,3.8ZM244.39,16.028V6.479h1.73V16Z"
         transform="translate(-94.902 -1.051)"
         fill="#217da7" />
      <path
         id="Path_14605"
         data-name="Path 14605"
         d="M252,11.313c0-.984,0-1.791-.073-2.58h1.534l.1,1.577h.037a3.5,3.5,0,0,1,3.148-1.791c1.32,0,3.362.782,3.362,4.053v5.685h-1.73v-5.5c0-1.534-.568-2.812-2.2-2.812a2.445,2.445,0,0,0-2.323,1.767,2.5,2.5,0,0,0-.116.807v5.728H252Z"
         transform="translate(-97.919 -3.305)"
         fill="#217da7" />
      <path
         id="Path_14606"
         data-name="Path 14606"
         d="M277.671,8.73c-.037.691-.08,1.455-.08,2.616v5.5c0,2.189-.428,3.521-1.357,4.353a5.055,5.055,0,0,1-3.46,1.137,6.113,6.113,0,0,1-3.167-.789l.434-1.314a5.392,5.392,0,0,0,2.794.8c1.767,0,3.057-.923,3.057-3.326V16.622h-.043a3.405,3.405,0,0,1-3.026,1.589c-2.36,0-4.053-2.005-4.053-4.64,0-3.228,2.1-5.056,4.279-5.056a3.154,3.154,0,0,1,2.971,1.651h.043l.079-1.437Zm-1.791,3.747a2.45,2.45,0,0,0-.1-.789,2.482,2.482,0,0,0-2.415-1.834c-1.657,0-2.837,1.394-2.837,3.6,0,1.865.948,3.423,2.812,3.423a2.537,2.537,0,0,0,2.4-1.773,3.017,3.017,0,0,0,.134-.923Z"
         transform="translate(-104.464 -3.302)"
         fill="#217da7" />
      <path
         id="Path_14607"
         data-name="Path 14607"
         d="M130.578,45.574,129.2,49.744H127.43l4.505-13.254H134l4.524,13.254h-1.834l-1.412-4.169Zm4.347-1.339-1.3-3.815c-.293-.862-.489-1.651-.685-2.445H132.9c-.2.789-.41,1.6-.666,2.4l-1.3,3.833Z"
         transform="translate(-49.529 -14.177)"
         fill="#217da7" />
      <path
         id="Path_14608"
         data-name="Path 14608"
         d="M154.627,51.626a6.431,6.431,0,0,1-2.733.55,4.535,4.535,0,0,1-4.744-4.891,4.836,4.836,0,0,1,5.117-5.056,5.893,5.893,0,0,1,2.4.489l-.4,1.339a3.98,3.98,0,0,0-2.005-.452,3.3,3.3,0,0,0-3.362,3.6,3.261,3.261,0,0,0,3.3,3.558,4.891,4.891,0,0,0,2.127-.471Z"
         transform="translate(-57.193 -16.407)"
         fill="#217da7" />
      <path
         id="Path_14609"
         data-name="Path 14609"
         d="M167.491,51.966l-.134-1.223H167.3a3.552,3.552,0,0,1-2.91,1.418,2.714,2.714,0,0,1-2.916-2.733c0-2.3,2.048-3.564,5.728-3.546v-.2a1.962,1.962,0,0,0-2.164-2.2,4.75,4.75,0,0,0-2.482.709l-.391-1.143a5.893,5.893,0,0,1,3.13-.844c2.91,0,3.619,1.987,3.619,3.894v3.558a13.61,13.61,0,0,0,.153,2.28Zm-.257-4.854c-1.889-.043-4.035.293-4.035,2.14a1.534,1.534,0,0,0,1.651,1.657,2.372,2.372,0,0,0,2.3-1.6,1.744,1.744,0,0,0,.1-.55Z"
         transform="translate(-62.759 -16.399)"
         fill="#217da7" />
      <path
         id="Path_14610"
         data-name="Path 14610"
         d="M185.993,35.322V46.827a22.787,22.787,0,0,0,.079,2.445h-1.559l-.079-1.651H184.4a3.521,3.521,0,0,1-3.246,1.871c-2.3,0-4.071-1.95-4.071-4.842,0-3.167,1.95-5.111,4.279-5.111A3.179,3.179,0,0,1,184.233,41h.043V35.31Zm-1.73,8.32a3.279,3.279,0,0,0-.079-.727,2.549,2.549,0,0,0-2.5-2.005c-1.791,0-2.855,1.571-2.855,3.668,0,1.932.948,3.521,2.818,3.521a2.6,2.6,0,0,0,2.537-2.06,3.267,3.267,0,0,0,.079-.752Z"
         transform="translate(-68.826 -13.718)"
         fill="#217da7" />
      <path
         id="Path_14611"
         data-name="Path 14611"
         d="M196.881,47.538a3.053,3.053,0,0,0,3.264,3.307,6.3,6.3,0,0,0,2.641-.5l.293,1.223a7.7,7.7,0,0,1-3.167.611c-2.934,0-4.683-1.932-4.683-4.805s1.693-5.129,4.463-5.129c3.112,0,3.937,2.733,3.937,4.481a5.646,5.646,0,0,1-.061.807Zm5.074-1.223c0-1.1-.452-2.812-2.4-2.812-1.755,0-2.519,1.614-2.659,2.812Z"
         transform="translate(-75.881 -16.415)"
         fill="#217da7" />
      <path
         id="Path_14612"
         data-name="Path 14612"
         d="M212.429,45.043c0-.984,0-1.791-.079-2.58h1.516L213.939,44H214a3.283,3.283,0,0,1,2.989-1.748,2.812,2.812,0,0,1,2.7,1.907h.043a3.9,3.9,0,0,1,1.058-1.223,3.258,3.258,0,0,1,2.109-.666c1.253,0,3.124.825,3.124,4.126V52h-1.693V46.6c0-1.834-.666-2.934-2.06-2.934a2.237,2.237,0,0,0-2.048,1.577,2.793,2.793,0,0,0-.141.862v5.881H218.39v-5.7c0-1.51-.672-2.616-1.987-2.616a2.372,2.372,0,0,0-2.146,1.73,2.444,2.444,0,0,0-.141.85v5.74h-1.687Z"
         transform="translate(-82.535 -16.415)"
         fill="#217da7" />
      <path
         id="Path_14613"
         data-name="Path 14613"
         d="M238.729,42.6l2.085,5.624c.214.611.452,1.382.611,1.95h.043c.177-.569.373-1.3.611-1.987l1.889-5.588H245.8l-2.6,6.786c-1.223,3.264-2.085,4.94-3.264,5.96a4.689,4.689,0,0,1-2.127,1.125l-.428-1.455a4.622,4.622,0,0,0,1.51-.85,5.147,5.147,0,0,0,1.455-1.926,1.26,1.26,0,0,0,.141-.416,1.491,1.491,0,0,0-.116-.452L236.84,42.6Z"
         transform="translate(-92.054 -16.551)"
         fill="#217da7" />
    </g>
  </g>
  <path
     style="fill:#ffffff;stroke-width:0.263233;stroke-linecap:round;stroke-linejoin:round;stroke-miterlimit:3.8;stroke-dashoffset:26.4"
     d="M 17.339761,18.534668 C 16.91074,18.426907 16.541033,18.118808 16.348844,17.708879 L 16.232672,17.461091 V 9.3008825 1.1406743 l 0.114117,-0.24329844 c 0.16287,-0.34724432 0.355517,-0.54565798 0.68938,-0.71001818 0.255771,-0.12591557 0.334551,-0.14348559 0.64336,-0.14348559 0.296616,0 0.391203,0.01930089 0.602084,0.12285782 0.313257,0.15382971 0.615467,0.48387046 0.734579,0.80222379 0.08969,0.239724 0.0901,0.2776522 0.0901,8.3319288 0,8.0542765 -4.1e-4,8.0922045 -0.0901,8.3319285 -0.24199,0.646775 -1.021806,1.066286 -1.676431,0.901857 z"
     id="path2" />
  <path
     style="fill:#ffffff;stroke-width:0.263233;stroke-linecap:round;stroke-linejoin:round;stroke-miterlimit:3.8;stroke-dashoffset:26.4"
     d="m 25.280136,15.532076 c -0.359287,-0.137429 -0.61746,-0.378065 -0.826615,-0.770465 l -0.104513,-0.196078 -0.0119,-3.879219 c -0.01318,-4.2953711 -0.02309,-4.1292175 0.270168,-4.5258363 0.37261,-0.5039311 1.031299,-0.7065331 1.639872,-0.5043975 0.305933,0.1016145 0.670681,0.4364638 0.830955,0.7628411 l 0.122589,0.249636 v 3.9265517 3.926552 l -0.0948,0.205131 c -0.128808,0.278711 -0.42587,0.590666 -0.693133,0.727881 -0.273172,0.14025 -0.862947,0.180554 -1.132622,0.0774 z"
     id="path3" />
  <path
     style="fill:#ffffff;stroke-width:0.263233;stroke-linecap:round;stroke-linejoin:round;stroke-miterlimit:3.8;stroke-dashoffset:26.4"
     d="m 33.624955,15.683206 c -0.274172,-0.04549 -0.601784,-0.2209 -0.789839,-0.422897 C 32.401051,14.794061 32.392517,14.7392 32.408289,12.51656 l 0.01318,-1.857727 0.144426,-0.293253 c 0.157073,-0.318931 0.381629,-0.5418295 0.707764,-0.7025437 0.163533,-0.080586 0.273925,-0.098846 0.595588,-0.098517 0.342628,3.505e-4 0.423861,0.015818 0.61421,0.1169548 0.263882,0.1402064 0.545566,0.4251229 0.686397,0.6942749 l 0.1033,0.197424 v 2.040052 2.040052 l -0.107602,0.219361 c -0.279725,0.570253 -0.929261,0.911998 -1.540601,0.810568 z"
     id="path4" />
  <path
     style="fill:#ffffff;stroke-width:0.263233;stroke-linecap:round;stroke-linejoin:round;stroke-miterlimit:3.8;stroke-dashoffset:26.4"
     d="m 41.696929,15.683136 c -0.450315,-0.07469 -0.875035,-0.407517 -1.076403,-0.843513 l -0.126589,-0.27409 v -3.88268 -3.8826795 l 0.11561,-0.2465616 c 0.150393,-0.3207442 0.371828,-0.5618191 0.660226,-0.7187849 0.325351,-0.177078 0.822498,-0.2043926 1.190952,-0.065434 0.343188,0.1294295 0.688579,0.4726716 0.814623,0.8095533 0.09113,0.243571 0.09221,0.2915939 0.09221,4.1039067 0,3.841845 -3.82e-4,3.858474 -0.09449,4.110003 -0.225704,0.603249 -0.925043,0.998269 -1.576138,0.89028 z"
     id="path5" />
  <path
     style="fill:#ffffff;stroke-width:0.263233;stroke-linecap:round;stroke-linejoin:round;stroke-miterlimit:3.8;stroke-dashoffset:26.4"
     d="m 49.663203,18.608851 c -0.474402,-0.15719 -0.825521,-0.496781 -0.980674,-0.948473 -0.03951,-0.115025 -0.05178,-2.118107 -0.05078,-8.2873005 l 0.0013,-8.1356117 0.11493,-0.2560999 c 0.135394,-0.30169658 0.446954,-0.6126577 0.750287,-0.74884461 0.155409,-0.0697738 0.298512,-0.0941808 0.559762,-0.0954708 0.425392,-0.0021 0.664505,0.0918899 0.976716,0.3839272 0.244231,0.22844881 0.386597,0.48740631 0.449073,0.81683951 0.06078,0.3205076 0.06021,15.7841508 -6e-4,16.1047838 -0.131401,0.692877 -0.669358,1.172817 -1.355252,1.209096 -0.16554,0.0088 -0.364369,-0.0096 -0.464786,-0.04285 z"
     id="path6" />
  <path
     style="fill:#ffffff;stroke-width:0.263233;stroke-linecap:round;stroke-linejoin:round;stroke-miterlimit:3.8;stroke-dashoffset:26.4"
     d="M 57.894999,15.506311 C 57.450681,15.416827 57.067732,15.12522 56.84876,14.709624 l -0.122151,-0.231835 v -3.88268 -3.8826796 l 0.101195,-0.2033965 c 0.163342,-0.3283072 0.381491,-0.5481135 0.699217,-0.7045295 0.252446,-0.1242788 0.337536,-0.1438496 0.625431,-0.1438496 0.287895,0 0.372985,0.019571 0.625431,0.1438496 0.317726,0.156416 0.535874,0.3762223 0.699216,0.7045295 l 0.101196,0.2033965 v 3.8826796 3.88268 l -0.105043,0.197424 c -0.163551,0.307391 -0.301124,0.466848 -0.523501,0.606779 -0.336735,0.21189 -0.715981,0.292546 -1.054752,0.224319 z"
     id="path7" />
  <path
     style="fill:#ffffff;stroke-width:0.263233;stroke-linecap:round;stroke-linejoin:round;stroke-miterlimit:3.8;stroke-dashoffset:26.4"
     d="m 65.960466,15.668441 c -0.538853,-0.115871 -0.990588,-0.542979 -1.113261,-1.05257 -0.01657,-0.06883 -0.03007,-0.977078 -0.03001,-2.018325 1.25e-4,-2.05023 0.0017,-2.065411 0.246468,-2.435338 0.131544,-0.1987763 0.297264,-0.3369621 0.590917,-0.4927361 0.165714,-0.087906 0.260845,-0.1047782 0.592273,-0.1050422 0.367681,-2.93e-4 0.414168,0.010158 0.675636,0.1518926 0.328776,0.1782213 0.57306,0.4612097 0.691542,0.8011117 0.07344,0.210686 0.0806,0.400765 0.0806,2.139663 v 1.908436 l -0.114116,0.243298 c -0.309828,0.660559 -0.954633,1.002697 -1.620049,0.85961 z"
     id="path8" />
  <path
     style="fill:#ffffff;stroke-width:0.263233;stroke-linecap:round;stroke-linejoin:round;stroke-miterlimit:3.8;stroke-dashoffset:26.4"
     d="M 9.0913356,15.532076 C 8.7320492,15.394647 8.4738755,15.154011 8.2647209,14.761611 L 8.1602082,14.565533 8.1483142,10.664058 C 8.1351511,6.3463061 8.1219167,6.56603 8.4195735,6.1604777 8.788947,5.6572126 9.4495766,5.4538781 10.05835,5.6560802 c 0.305933,0.1016145 0.670681,0.4364638 0.830955,0.7628411 l 0.122589,0.249636 v 3.9265517 3.926552 l -0.09658,0.207063 c -0.131132,0.281131 -0.424062,0.588719 -0.691353,0.725949 -0.2731727,0.14025 -0.8629476,0.180554 -1.1326224,0.0774 z"
     id="path9" />
  <path
     style="fill:#ffffff;stroke-width:0.263233;stroke-linecap:round;stroke-linejoin:round;stroke-miterlimit:3.8;stroke-dashoffset:26.4"
     d="M 1.2243257,15.507907 C 1.1255561,15.488066 0.97234326,15.441582 0.88385273,15.404609 0.64226261,15.303666 0.26549364,14.923981 0.14707708,14.66213 0.04404247,14.434294 0.04387209,14.430911 0.04387209,12.613225 V 10.792533 L 0.16672991,10.542348 C 0.32197571,10.226208 0.65037812,9.9272145 0.97827595,9.8034765 1.3201006,9.6744831 1.7917027,9.6982671 2.1058602,9.8603433 2.3678453,9.9955035 2.6501633,10.279671 2.7922575,10.551237 l 0.1033003,0.197424 v 1.864564 1.864564 l -0.1076025,0.21936 c -0.2807788,0.572402 -0.9703226,0.929937 -1.5636296,0.810758 z"
     id="path10" />
  <path
     style="fill:#ffffff;stroke-width:0.526465;stroke-linecap:round;stroke-linejoin:round;stroke-miterlimit:3.8;stroke-dashoffset:26.4"
     d="M 10.792533,35.500832 C 10.005175,35.283752 9.6018543,35.110379 8.9982539,34.729532 7.8977075,34.035134 6.9233368,32.805948 6.4919592,31.567798 6.1724994,30.650876 6.0938637,29.201416 6.3131912,28.272638 c 0.48265,-2.04386 2.0594848,-3.761305 4.0533568,-4.414803 0.708804,-0.232313 0.884724,-0.254541 2.005381,-0.253386 0.883308,9.1e-4 1.431787,0.04762 1.952308,0.166245 l 0.723889,0.164978 v 1.532219 c 0,1.424481 -0.0108,1.52784 -0.153552,1.469948 -0.954598,-0.38712 -1.137285,-0.422642 -2.215541,-0.4308 -1.032943,-0.0078 -1.126011,0.006 -1.598486,0.23806 -0.660725,0.324457 -1.208852,0.869593 -1.5212391,1.512939 -0.2245203,0.462388 -0.2536695,0.617317 -0.2550529,1.355621 -0.00135,0.719341 0.029882,0.899702 0.2278951,1.316163 0.3402477,0.715606 0.7894909,1.180045 1.4605009,1.509901 0.571618,0.280998 0.61746,0.288737 1.685393,0.284563 1.074718,-0.0042 1.363969,-0.06041 2.218645,-0.431173 0.146181,-0.06341 0.154203,0.02534 0.131616,1.456259 l -0.02405,1.523786 -0.614209,0.160011 c -0.953565,0.248418 -2.814922,0.283427 -3.597512,0.06766 z"
     id="path11" />
  <path
     style="fill:#ffffff;stroke-width:0.526465;stroke-linecap:round;stroke-linejoin:round;stroke-miterlimit:3.8;stroke-dashoffset:26.4"
     d="m 19.172102,29.569787 v -5.834988 h 1.447779 1.447779 v 5.834988 5.834987 h -1.447779 -1.447779 z"
     id="path12" />
  <path
     style="fill:#ffffff;stroke-width:0.526465;stroke-linecap:round;stroke-linejoin:round;stroke-miterlimit:3.8;stroke-dashoffset:26.4"
     d="m 27.834824,35.576089 c -0.423377,-0.0441 -0.956423,-0.111427 -1.184546,-0.149617 l -0.41477,-0.06944 -0.02428,-1.292293 c -0.01886,-1.003704 7.36e-4,-1.291595 0.08775,-1.289167 0.06161,0.0017 0.348935,0.06158 0.638491,0.133027 0.77507,0.191242 2.435309,0.260768 3.068034,0.128479 0.709127,-0.148263 1.099814,-0.523788 1.099814,-1.05713 0,-0.553325 -0.378737,-0.870418 -1.467512,-1.228659 -2.486111,-0.818009 -3.499274,-1.878271 -3.47672,-3.638342 0.03173,-2.476484 2.223723,-3.871382 5.458101,-3.473329 0.451536,0.05557 1.014196,0.142476 1.250355,0.193123 l 0.42938,0.09208 v 1.177276 c 0,0.647501 -0.02961,1.176498 -0.06581,1.175549 -0.03619,-9.5e-4 -0.381687,-0.0588 -0.767761,-0.128555 -0.839207,-0.151628 -1.974252,-0.168513 -2.449923,-0.03645 -0.435248,0.120844 -0.840484,0.517369 -0.840484,0.822416 0,0.628215 0.397132,0.916936 1.922353,1.397582 1.180745,0.37209 1.597805,0.59968 2.102738,1.147468 1.629356,1.767643 1.093314,4.498199 -1.092251,5.563839 -0.310573,0.15143 -0.811249,0.335136 -1.112614,0.408236 -0.698489,0.169429 -2.169516,0.227097 -3.16034,0.123895 z"
     id="path13" />
  <path
     style="fill:#ffffff;stroke-width:0.526465;stroke-linecap:round;stroke-linejoin:round;stroke-miterlimit:3.8;stroke-dashoffset:26.4"
     d="m 41.897843,35.537443 c -0.313685,-0.07022 -0.944585,-0.31267 -1.402,-0.53878 -2.020338,-0.998698 -3.333138,-3.119652 -3.333138,-5.385004 0,-2.249067 1.306233,-4.373483 3.30383,-5.373242 1.110596,-0.555832 1.886739,-0.716542 3.176532,-0.657741 0.560295,0.02554 1.324726,0.115796 1.698735,0.200561 l 0.680018,0.154119 v 1.531376 c 0,1.42368 -0.0108,1.526998 -0.153553,1.469107 -0.980497,-0.397623 -1.130408,-0.42692 -2.21554,-0.432976 -1.301785,-0.0073 -1.647832,0.111576 -2.402137,0.824967 -0.849336,0.803267 -1.182537,1.946497 -0.89619,3.074874 0.258377,1.01816 0.923945,1.77008 1.924544,2.174239 0.470573,0.190074 0.622722,0.20789 1.497194,0.175323 0.759539,-0.02829 1.113151,-0.08617 1.609536,-0.263474 L 46.02182,32.26357 v 1.513196 1.513196 l -0.680018,0.154971 c -0.923205,0.210392 -2.703699,0.258219 -3.443959,0.09251 z"
     id="path14" />
  <path
     style="fill:#ffffff;stroke-width:0.526465;stroke-linecap:round;stroke-linejoin:round;stroke-miterlimit:3.8;stroke-dashoffset:26.4"
     d="m 53.963267,35.701757 c -0.707522,-0.171029 -1.818952,-0.725415 -2.434782,-1.214479 -1.415301,-1.123969 -2.261706,-2.914318 -2.258834,-4.777975 0.0022,-1.415984 0.412904,-2.634222 1.269063,-3.764156 0.810412,-1.06956 2.161486,-1.93316 3.533572,-2.258643 1.00183,-0.237652 2.557892,-0.145722 3.51186,0.207475 2.439764,0.903299 3.968393,3.106525 3.968393,5.71968 0,2.937589 -1.910697,5.389659 -4.743792,6.087892 -0.711569,0.17537 -2.120432,0.175472 -2.84548,2.06e-4 z m 2.487566,-3.14345 c 1.311544,-0.465457 2.098573,-1.722246 2.012257,-3.213324 -0.06819,-1.177939 -0.704717,-2.096885 -1.808857,-2.611427 -0.421529,-0.196437 -0.619455,-0.232267 -1.289504,-0.233435 -0.71899,-0.0013 -0.845237,0.02505 -1.377352,0.287013 -0.648404,0.319208 -1.158459,0.831296 -1.485459,1.491379 -0.175366,0.353994 -0.205109,0.54705 -0.205699,1.335146 -6.24e-4,0.831841 0.02227,0.964835 0.235745,1.369462 0.320182,0.606883 0.606501,0.931043 1.104775,1.250784 0.822358,0.527706 1.893349,0.651167 2.814094,0.324402 z"
     id="path15" />
  <path
     style="fill:#ffffff;stroke-width:0.0658081;stroke-linecap:round;stroke-linejoin:round;stroke-miterlimit:3.8;stroke-dashoffset:26.4"
     d="m 65.28715,34.801533 v -0.685501 h -0.268716 -0.268717 v -0.08226 -0.08226 h 0.630661 0.630661 v 0.08226 0.08226 h -0.263232 -0.263233 v 0.685501 0.685502 h -0.09871 -0.09871 z"
     id="path16" />
  <path
     style="fill:#ffffff;stroke-width:0.0658081;stroke-linecap:round;stroke-linejoin:round;stroke-miterlimit:3.8;stroke-dashoffset:26.4"
     d="m 66.131688,34.719273 v -0.767761 h 0.163732 0.163732 l 0.02367,0.06307 c 0.02652,0.07067 0.413105,1.120981 0.429937,1.168094 0.0059,0.01659 0.01422,0.03016 0.01843,0.03016 0.0042,0 0.108609,-0.283715 0.231998,-0.630478 l 0.224344,-0.630478 0.161779,-1.83e-4 0.161778,-1.83e-4 v 0.767761 0.767762 H 67.606887 67.50269 v -0.63706 c 0,-0.504573 -0.0028,-0.636109 -0.0137,-0.632492 -0.0075,0.0025 -0.07663,0.174436 -0.153545,0.382053 -0.07691,0.207617 -0.182445,0.492421 -0.234513,0.632898 l -0.09467,0.255413 -0.09454,-0.0031 -0.09454,-0.0031 -0.193954,-0.537433 c -0.106675,-0.295589 -0.209497,-0.58062 -0.228492,-0.633404 -0.019,-0.05278 -0.03907,-0.09597 -0.0446,-0.09597 -0.006,0 -0.01006,0.257513 -0.01006,0.636145 v 0.636146 H 66.23588 66.131684 Z"
     id="path17" />
  <path
     style="fill:#ffffff;stroke-width:0.744534;stroke-linecap:round;stroke-linejoin:round;stroke-miterlimit:3.8;stroke-dashoffset:26.4"
     d="M 78.98265,8.3760076 V 1.7992905 l 0.899645,0.00284 0.899645,0.00284 1.234262,1.9515584 c 3.265258,5.1628764 4.057722,6.4616621 4.675447,7.6626891 0.652898,1.269411 0.962454,1.639728 0.801359,0.958653 C 87.448615,12.190193 87.37843,9.7332311 87.337042,6.9179619 L 87.26179,1.7992905 h 0.761945 0.761946 V 8.3760076 14.952725 H 88.00721 87.228739 L 84.724938,10.950854 C 83.347848,8.7498258 81.841478,6.2390022 81.37745,5.3712466 80.913422,4.5034909 80.505842,3.7915038 80.471718,3.7890531 c -0.03412,-0.00245 -0.04402,2.5083728 -0.02199,5.5796079 l 0.04005,5.584064 H 79.736212 78.98265 Z"
     id="path1" />
  <path
     style="fill:#ffffff;stroke-width:0.744534;stroke-linecap:round;stroke-linejoin:round;stroke-miterlimit:3.8;stroke-dashoffset:26.4"
     d="m 94.420606,14.943633 c -1.311655,-0.314635 -2.543461,-1.482689 -2.986798,-2.832216 -0.320762,-0.976406 -0.296897,-2.8017188 0.04911,-3.7562383 0.55015,-1.5176781 1.584907,-2.527944 2.977007,-2.9065456 1.336126,-0.3633785 2.903907,-0.00326 3.731569,0.857132 0.765439,0.7957127 1.339292,2.4655544 1.244503,3.6213551 l -0.04071,0.4963558 -3.388728,0.03303 -3.388727,0.03303 0.0859,0.587415 c 0.178599,1.221286 0.776277,2.036846 1.852081,2.527256 0.621811,0.283456 2.308156,0.307996 3.285861,0.04782 0.373995,-0.09952 0.71865,-0.140742 0.7659,-0.09159 0.04725,0.04915 0.122235,0.287283 0.166634,0.529188 l 0.08073,0.439827 -0.722537,0.230701 c -0.834919,0.266584 -2.933009,0.3703 -3.711797,0.183487 z m 3.42288,-5.9782026 C 97.83956,6.6773509 95.352711,5.5634821 93.702524,7.110678 93.272988,7.5134063 92.759419,8.5553475 92.757741,9.0274749 l -0.0012,0.3412448 h 2.543825 2.543824 z"
     id="path18" />
  <path
     style="fill:#ffffff;stroke-width:0.744534;stroke-linecap:round;stroke-linejoin:round;stroke-miterlimit:3.8;stroke-dashoffset:26.4"
     d="M 103.48047,14.849961 C 102.25238,14.271655 102.0632,13.578444 102.0632,9.6564199 V 6.6387616 h -0.74453 -0.74453 V 6.0803611 5.5219606 h 0.74453 0.74453 V 4.3578463 3.193732 l 0.58943,-0.1444313 c 0.32418,-0.079437 0.68714,-0.1735892 0.80658,-0.2092268 0.19763,-0.058972 0.21715,0.058644 0.21715,1.3085456 v 1.3733411 h 1.24089 1.24089 v 0.5584005 0.5584005 h -1.24089 -1.24089 v 2.9821217 c 0,3.9142937 0.0693,4.0909517 1.605,4.0909517 h 0.75269 v 0.551077 c 0,0.303092 -0.0577,0.58674 -0.12823,0.630327 -0.0705,0.04359 -0.5312,0.105304 -1.02373,0.137148 -0.71115,0.04598 -0.9997,0.0088 -1.40162,-0.180426 z"
     id="path19" />
  <path
     style="fill:#ffffff;stroke-width:0.744534;stroke-linecap:round;stroke-linejoin:round;stroke-miterlimit:3.8;stroke-dashoffset:26.4"
     d="m 116.54489,14.865524 c -0.13969,-0.235743 -1.93811,-5.8905971 -2.13293,-6.7066721 -0.11812,-0.4948049 -0.255,-0.8996453 -0.30418,-0.8996453 -0.0492,0 -0.15388,0.2931603 -0.23268,0.6514673 -0.0788,0.358307 -0.60203,2.0614285 -1.16272,3.7847141 l -1.01944,3.133248 h -0.77361 c -0.62982,0 -0.78544,-0.04036 -0.83723,-0.217156 -0.035,-0.119436 -0.65299,-2.178866 -1.37334,-4.576512 -0.72035,-2.3976467 -1.30973,-4.3939285 -1.30973,-4.4361823 0,-0.042254 0.35492,-0.076825 0.78871,-0.076825 h 0.7887 l 0.76971,2.9867398 c 0.42334,1.6427065 0.86401,3.4016685 0.97926,3.9088035 0.11526,0.507135 0.24242,0.922064 0.28258,0.922064 0.0402,0 0.16791,-0.349001 0.28388,-0.775557 0.11597,-0.426555 0.66531,-2.215934 1.22075,-3.9763966 l 1.00989,-3.2008411 0.68509,0.036571 0.68509,0.036571 0.20664,0.6824895 c 0.8199,2.7078948 1.86441,6.2330722 1.98093,6.6855682 0.17314,0.672371 0.29267,0.556008 0.48857,-0.475615 0.1338,-0.704632 0.89592,-3.5065348 1.63003,-5.9927974 l 0.24731,-0.8376008 h 0.74914 0.74914 l -0.0767,0.3412448 c -0.0422,0.1876846 -0.70593,2.2956465 -1.47496,4.6843594 l -1.39825,4.343115 -0.6955,0.03689 c -0.38253,0.02029 -0.72189,-0.0076 -0.75413,-0.06204 z"
     id="path20" />
  <path
     style="fill:#ffffff;stroke-width:0.744534;stroke-linecap:round;stroke-linejoin:round;stroke-miterlimit:3.8;stroke-dashoffset:26.4"
     d="m 124.84508,14.776809 c -1.99688,-0.840627 -2.87531,-2.368529 -2.78375,-4.8419281 0.0415,-1.1207169 0.0919,-1.3547996 0.44778,-2.0776241 0.47616,-0.9672058 1.25756,-1.7309549 2.24065,-2.1900222 0.60656,-0.2832406 0.86771,-0.3288471 1.88307,-0.3288471 1.01254,0 1.27723,0.045951 1.87622,0.3257148 1.52065,0.7102251 2.36526,1.9481578 2.5964,3.8054868 0.22175,1.7819379 -0.21451,3.1795099 -1.33927,4.2904359 -0.89692,0.885883 -1.71985,1.22936 -3.07131,1.281918 -0.97001,0.03772 -1.21314,0.0029 -1.84979,-0.265134 z m 3.08994,-1.244116 c 1.08526,-0.636001 1.63138,-1.976025 1.52864,-3.7508195 -0.0778,-1.3440641 -0.54357,-2.2965062 -1.40617,-2.8754878 -0.58855,-0.3950382 -0.66357,-0.4128073 -1.56975,-0.3718024 -0.82112,0.037156 -1.02516,0.094723 -1.48751,0.4196727 -0.79315,0.5574503 -1.2466,1.5194192 -1.32085,2.8021642 -0.12343,2.1320858 0.65831,3.5978828 2.17963,4.0869518 0.53754,0.172806 1.49568,0.02942 2.07601,-0.310679 z"
     id="path21" />
  <path
     style="fill:#ffffff;stroke-width:0.744534;stroke-linecap:round;stroke-linejoin:round;stroke-miterlimit:3.8;stroke-dashoffset:26.4"
     d="M 133.45772,10.237343 V 5.5219606 h 0.68249 0.68249 v 0.9306675 c 0,0.5118671 0.0451,0.9306675 0.10021,0.9306675 0.0551,0 0.19812,-0.221925 0.31779,-0.4931665 0.39022,-0.8844557 1.51384,-1.6163465 2.48147,-1.6163465 0.31675,0 0.32684,0.022991 0.32684,0.744534 0,0.7293252 -0.007,0.7445482 -0.34124,0.7452261 -0.63077,0.00128 -1.28609,0.2609408 -1.77634,0.7038533 -0.76716,0.6930798 -0.86055,1.1914122 -0.86055,4.591759 v 2.89357 h -0.80658 -0.80658 z"
     id="path22" />
  <path
     style="fill:#ffffff;stroke-width:0.744534;stroke-linecap:round;stroke-linejoin:round;stroke-miterlimit:3.8;stroke-dashoffset:26.4"
     d="M 140.03444,8.0037406 V 1.0547565 h 0.74453 0.74454 v 4.4155003 c 0,2.4285253 0.0462,4.3968871 0.1026,4.3741373 0.0822,-0.033142 2.704,-3.100207 3.50101,-4.0956081 0.16332,-0.2039697 0.32525,-0.2333601 1.11166,-0.201764 l 0.92049,0.036983 -1.16709,1.24089 c -0.6419,0.6824895 -1.43669,1.523242 -1.76619,1.868339 l -0.5991,0.627449 2.11391,2.816021 2.1139,2.816021 -0.96302,-5e-6 -0.96301,-6e-6 -1.66518,-2.295641 c -0.91585,-1.262603 -1.70784,-2.295641 -1.75997,-2.295641 -0.0521,0 -0.29395,0.243071 -0.53739,0.540158 l -0.44262,0.540159 v 1.755488 1.755488 h -0.74454 -0.74453 z"
     id="path23" />
  <path
     style="fill:#ffffff;stroke-width:0.744534;stroke-linecap:round;stroke-linejoin:round;stroke-miterlimit:3.8;stroke-dashoffset:26.4"
     d="M 149.58929,10.237343 V 5.5219606 h 0.80658 0.80658 v 4.7153824 4.715382 h -0.80658 -0.80658 z"
     id="path24" />
  <path
     style="fill:#ffffff;stroke-width:0.744534;stroke-linecap:round;stroke-linejoin:round;stroke-miterlimit:3.8;stroke-dashoffset:26.4"
     d="m 149.6457,3.3560435 c -0.88337,-0.8833639 0.46,-2.1640504 1.37163,-1.307626 0.61382,0.5766557 0.17479,1.6122081 -0.6835,1.6122081 -0.24178,0 -0.49614,-0.112587 -0.68813,-0.3045821 z"
     id="path25" />
  <path
     style="fill:#ffffff;stroke-width:0.744534;stroke-linecap:round;stroke-linejoin:round;stroke-miterlimit:3.8;stroke-dashoffset:26.4"
     d="m 160.48698,11.571299 c -0.0394,-3.3436757 -0.0434,-3.3875209 -0.35012,-3.9274846 -0.38998,-0.6864523 -0.96702,-1.0050528 -1.8203,-1.0050528 -1.10914,0 -1.83713,0.4541342 -2.28756,1.4270235 -0.20425,0.4411476 -0.23011,0.8448595 -0.23253,3.6296029 l -0.003,3.133248 h -0.80658 -0.80657 v -4.077618 c 0,-2.2426899 -0.0355,-4.3366918 -0.0789,-4.6533376 l -0.0789,-0.5757198 h 0.7614 0.7614 v 0.744534 c 0,0.4094937 0.0243,0.744534 0.054,0.744534 0.0297,0 0.35075,-0.29508 0.71351,-0.6557333 0.99206,-0.9863051 2.19006,-1.2999169 3.48126,-0.9113226 0.86354,0.2598885 1.40689,0.7475802 1.86182,1.6711043 l 0.40413,0.8204094 0.0396,3.5086186 0.0397,3.50862 h -0.80633 -0.80634 z"
     id="path26" />
  <path
     style="fill:#ffffff;stroke-width:0.744534;stroke-linecap:round;stroke-linejoin:round;stroke-miterlimit:3.8;stroke-dashoffset:26.4"
     d="m 166.27926,18.659838 c -1.04446,-0.35832 -1.07056,-0.390194 -0.84985,-1.037961 l 0.1851,-0.543218 0.56821,0.243566 c 1.9046,0.816405 3.89807,0.523403 4.73343,-0.695725 0.39836,-0.581363 0.51281,-1.106443 0.51281,-2.352696 v -1.114871 l -0.38141,0.462707 c -0.20977,0.254489 -0.64253,0.616212 -0.96169,0.803829 -0.51688,0.303851 -0.70231,0.341122 -1.69708,0.341122 -1.00432,0 -1.18328,-0.03683 -1.77682,-0.365616 -3.10899,-1.722239 -2.91895,-7.129423 0.30601,-8.7072531 1.49516,-0.7315131 3.13863,-0.4718916 4.12802,0.6521092 0.26196,0.2976097 0.51114,0.5411085 0.55372,0.5411085 0.0426,0 0.0774,-0.3071203 0.0774,-0.6824895 V 5.5219606 l 0.71352,-6.85e-5 0.71351,-6.85e-5 -0.0332,4.6223834 c -0.0375,5.20812 -0.12739,5.984113 -0.81239,7.009071 -0.46442,0.694916 -1.34546,1.320508 -2.22938,1.583005 -0.94211,0.279778 -2.82332,0.241429 -3.7499,-0.07644 z m 3.78779,-5.351293 c 0.32222,-0.162977 0.70766,-0.502956 0.92594,-0.816725 0.36262,-0.521275 0.37518,-0.586909 0.41541,-2.171149 0.0246,-0.9666618 -0.0148,-1.8214911 -0.0964,-2.0937744 -0.52134,-1.7400811 -2.89839,-2.2925711 -4.26858,-0.9921296 -1.18335,1.1231198 -1.39012,3.743963 -0.41098,5.209045 0.50659,0.757993 1.24566,1.143934 2.19062,1.143934 0.47129,0 0.86798,-0.08903 1.24396,-0.279201 z"
     id="path27" />
  <path
     style="fill:#ffffff;stroke-width:0.744534;stroke-linecap:round;stroke-linejoin:round;stroke-miterlimit:3.8;stroke-dashoffset:26.4"
     d="m 145.61632,39.203277 c -0.0891,-0.371268 -0.13898,-0.68868 -0.11093,-0.70536 0.0281,-0.01668 0.26974,-0.141863 0.53707,-0.278186 0.77373,-0.394549 1.61028,-1.227005 2.03634,-2.026368 0.21653,-0.406256 0.39369,-0.83202 0.39369,-0.946141 0,-0.114122 -0.80589,-2.216637 -1.79086,-4.672256 l -1.79086,-4.464763 0.87999,0.03629 0.87998,0.03629 0.9735,2.605869 c 0.53543,1.433228 1.12089,3.08051 1.30103,3.660626 0.18014,0.580116 0.36917,1.101651 0.42006,1.158967 0.0509,0.05732 0.1861,-0.193964 0.30047,-0.5584 0.11436,-0.364436 0.68609,-2.072573 1.2705,-3.795859 l 1.06256,-3.133247 h 0.79064 c 0.43485,0 0.79064,0.05419 0.79064,0.120431 0,0.320162 -3.20771,8.440075 -3.84954,9.744645 -1.01799,2.069104 -2.01188,3.141522 -3.42283,3.693258 l -0.50951,0.199241 z"
     id="path28" />
  <path
     style="fill:#ffffff;stroke-width:0.744534;stroke-linecap:round;stroke-linejoin:round;stroke-miterlimit:3.8;stroke-dashoffset:26.4"
     d="m 129.98323,31.223895 c 0,-2.380182 -0.0349,-4.502104 -0.0776,-4.715382 l -0.0775,-0.387778 h 0.68472 c 0.77553,0 0.83537,0.06739 0.83537,0.940816 0,0.634769 0.0946,0.681422 0.41913,0.20665 0.51116,-0.747831 1.71252,-1.381939 2.63647,-1.391593 0.95093,-0.0099 1.98249,0.602244 2.42712,1.440392 0.31712,0.59777 0.42011,0.656674 0.53196,0.304247 0.10818,-0.340828 1.11881,-1.23738 1.65531,-1.468456 0.26011,-0.112033 0.80618,-0.19799 1.26442,-0.199033 1.29229,-0.0029 2.17679,0.588633 2.75432,1.842178 0.27404,0.5948 0.28743,0.767907 0.32387,4.188004 l 0.038,3.567559 h -0.73946 -0.73947 l -0.0461,-3.257336 c -0.0423,-2.98721 -0.0676,-3.303644 -0.30543,-3.815737 -0.34561,-0.744154 -0.78265,-1.122867 -1.3898,-1.204302 -0.7549,-0.101254 -1.34091,0.05635 -1.84048,0.494972 -0.7973,0.700037 -0.83553,0.895368 -0.88576,4.525067 l -0.0451,3.257336 h -0.72648 -0.72649 l -0.0384,-3.319381 c -0.0359,-3.105017 -0.0559,-3.357231 -0.30918,-3.905494 -0.37668,-0.815403 -0.88724,-1.116027 -1.79651,-1.057802 -0.92583,0.05928 -1.5857,0.490344 -1.98161,1.294483 -0.28281,0.574398 -0.29574,0.721724 -0.33289,3.792902 l -0.0386,3.195292 h -0.73691 -0.73691 z"
     id="path29" />
  <path
     style="fill:#ffffff;stroke-width:0.744534;stroke-linecap:round;stroke-linejoin:round;stroke-miterlimit:3.8;stroke-dashoffset:26.4"
     d="m 122.32838,35.426599 c -1.68895,-0.553536 -2.74804,-2.069745 -2.86379,-4.099847 -0.14538,-2.549753 1.04459,-4.589554 3.03632,-5.204736 0.91648,-0.283071 1.37201,-0.306487 2.25953,-0.116147 1.70235,0.365088 2.8651,2.056269 2.8651,4.167185 v 0.911241 h -3.36769 -3.36769 l 0.0725,0.611958 c 0.13164,1.111487 0.88012,2.141303 1.85046,2.546023 0.59321,0.247416 2.40391,0.252539 3.3176,0.0094 0.3722,-0.09905 0.68744,-0.168187 0.70053,-0.153638 0.0456,0.05065 0.29103,1.005349 0.26357,1.025234 -0.31578,0.228622 -1.52755,0.4598 -2.63353,0.502419 -1.1341,0.0437 -1.49487,0.01003 -2.13289,-0.199078 z m 3.80809,-5.746805 c 0,-0.470634 -0.35273,-1.515331 -0.63114,-1.869271 -0.3966,-0.504189 -0.95664,-0.738118 -1.78859,-0.747098 -1.43206,-0.01546 -2.34624,0.845247 -2.72207,2.562824 l -0.0747,0.341245 h 2.60824 2.60823 z"
     id="path30" />
  <path
     style="fill:#ffffff;stroke-width:0.744534;stroke-linecap:round;stroke-linejoin:round;stroke-miterlimit:3.8;stroke-dashoffset:26.4"
     d="m 111.02657,35.468628 c -0.78533,-0.27792 -1.78945,-1.257003 -2.1787,-2.124373 -0.7918,-1.764363 -0.65231,-3.977328 0.35001,-5.552642 0.81697,-1.284015 1.82708,-1.841835 3.35084,-1.850461 1.16151,-0.0066 1.71371,0.211426 2.44543,0.965409 l 0.47067,0.48499 v -2.86901 -2.86901 h 0.80658 0.80657 v 6.373264 c 0,3.505296 0.0355,6.632338 0.0789,6.948985 l 0.0789,0.575719 h -0.7614 -0.76141 v -0.868623 c 0,-0.477743 -0.0419,-0.867932 -0.0931,-0.867087 -0.0512,8.45e-4 -0.21601,0.191385 -0.36627,0.423422 -0.35039,0.541081 -0.96677,1.009124 -1.64328,1.247809 -0.66931,0.236146 -1.8891,0.227464 -2.58381,-0.01839 z m 2.79805,-1.226646 c 0.61178,-0.255555 1.12334,-0.750164 1.40494,-1.358396 0.33101,-0.714945 0.33353,-3.494343 0.004,-4.220091 -0.46546,-1.024588 -1.60531,-1.655187 -2.71654,-1.502875 -1.61065,0.220765 -2.51195,1.533283 -2.51195,3.658047 0,1.269025 0.20941,1.996937 0.77024,2.677317 0.71137,0.863017 2.00926,1.180523 3.04948,0.745998 z"
     id="path31" />
  <path
     style="fill:#ffffff;stroke-width:0.744534;stroke-linecap:round;stroke-linejoin:round;stroke-miterlimit:3.8;stroke-dashoffset:26.4"
     d="m 100.24026,35.361257 c -0.888426,-0.442722 -1.316637,-1.095829 -1.380977,-2.106263 -0.06174,-0.969594 0.127456,-1.564789 0.698221,-2.196558 0.815416,-0.902566 2.388836,-1.456524 4.149876,-1.461054 l 0.8376,-0.0022 v -0.470063 c 0,-0.751155 -0.46595,-1.529643 -1.1168,-1.865895 -0.48059,-0.248293 -0.67528,-0.278413 -1.39725,-0.216172 -0.46138,0.03977 -1.12948,0.182741 -1.48467,0.317706 -0.702302,0.266852 -0.743748,0.252285 -0.937655,-0.329549 -0.129376,-0.388208 -0.124341,-0.395186 0.469505,-0.650651 2.12238,-0.913022 4.47008,-0.549753 5.34303,0.826748 0.55098,0.868802 0.61068,1.241504 0.62105,3.876944 0.005,1.330855 0.0485,2.847283 0.0961,3.36984 l 0.0866,0.950104 -0.43667,0.07227 c -0.92259,0.152677 -0.96405,0.131288 -1.05712,-0.54545 -0.0469,-0.341245 -0.11341,-0.620445 -0.14772,-0.620445 -0.0343,0 -0.31136,0.219167 -0.61568,0.487037 -1.04372,0.918719 -2.55598,1.147381 -3.72746,0.563611 z m 3.23296,-1.180506 c 0.78582,-0.538454 1.0047,-1.019048 1.05272,-2.311428 l 0.043,-1.157295 h -0.92012 c -1.77521,0 -2.96627,0.635066 -3.20688,1.70988 -0.18832,0.841246 0.0954,1.593105 0.7394,1.959213 0.48108,0.273503 1.76399,0.161343 2.29188,-0.20037 z"
     id="path32" />
  <path
     style="fill:#ffffff;stroke-width:0.744534;stroke-linecap:round;stroke-linejoin:round;stroke-miterlimit:3.8;stroke-dashoffset:26.4"
     d="m 93.041914,35.444521 c -0.910845,-0.314725 -1.593573,-0.8255 -2.159189,-1.615373 -0.619148,-0.86463 -0.856154,-1.666149 -0.856154,-2.895379 0,-1.12334 0.313033,-2.206221 0.87306,-3.020192 1.076843,-1.565137 3.137395,-2.319201 5.248796,-1.920808 1.151763,0.217322 1.263324,0.320109 1.06519,0.981422 -0.134562,0.449126 -0.197177,0.517178 -0.415409,0.45148 -1.514383,-0.455902 -2.736068,-0.34259 -3.750985,0.347907 -0.878539,0.597712 -1.315929,1.469562 -1.383545,2.757823 -0.09018,1.718195 0.42356,2.74886 1.73122,3.473158 0.595384,0.329776 0.774367,0.3673 1.719322,0.360464 0.678976,-0.0049 1.216308,-0.07825 1.508204,-0.205857 l 0.453448,-0.198227 0.142394,0.5655 c 0.07832,0.311026 0.09763,0.610182 0.04291,0.664792 -0.05472,0.05461 -0.432298,0.185931 -0.839069,0.291824 -1.000835,0.260544 -2.56628,0.242698 -3.380192,-0.03853 z"
     id="path33" />
  <path
     style="fill:#ffffff;stroke-width:0.744534;stroke-linecap:round;stroke-linejoin:round;stroke-miterlimit:3.8;stroke-dashoffset:26.4"
     d="m 77.992581,35.526146 c 0.0015,-0.02018 1.000184,-2.968294 2.2194,-6.551364 l 2.216755,-6.514673 0.9939,-0.03583 0.993899,-0.03583 0.246694,0.718319 c 0.135682,0.395076 1.114967,3.259043 2.176189,6.36437 1.061223,3.105327 1.967163,5.74377 2.0132,5.863205 0.07477,0.193966 -0.0081,0.217156 -0.775533,0.217156 H 87.217847 L 86.994049,34.837987 C 86.87096,34.445556 86.547832,33.496275 86.275986,32.728474 L 85.781722,31.332473 H 83.382401 80.98308 l -0.683423,2.078491 -0.683423,2.078491 -0.813148,0.03669 c -0.447231,0.02018 -0.811959,0.02018 -0.810505,10e-7 z m 7.442697,-5.490065 c 0,-0.03053 -0.310738,-0.965847 -0.690528,-2.078491 -0.37979,-1.112644 -0.818039,-2.497629 -0.973886,-3.077745 -0.155848,-0.580116 -0.328222,-1.054757 -0.383055,-1.054757 -0.05483,0 -0.227897,0.474641 -0.384589,1.054757 -0.156692,0.580116 -0.594941,1.974214 -0.973887,3.097996 -0.378946,1.123782 -0.688992,2.059103 -0.688992,2.078491 0,0.01939 0.921361,0.03525 2.047468,0.03525 1.126108,0 2.047469,-0.02498 2.047469,-0.0555 z"
     id="path34" />
</svg>
