<?xml version="1.0" encoding="UTF-8" standalone="no"?>
<svg
   id="Layer_1"
   viewBox="0 0 823.46 225.25"
   version="1.1"
   sodipodi:docname="Spotify.svg"
   inkscape:version="1.3.2 (091e20e, 2023-11-25, custom)"
   xmlns:inkscape="http://www.inkscape.org/namespaces/inkscape"
   xmlns:sodipodi="http://sodipodi.sourceforge.net/DTD/sodipodi-0.dtd"
   xmlns="http://www.w3.org/2000/svg"
   xmlns:svg="http://www.w3.org/2000/svg">
  <defs
     id="defs4" />
  <sodipodi:namedview
     id="namedview4"
     pagecolor="#ffffff"
     bordercolor="#000000"
     borderopacity="0.25"
     inkscape:showpageshadow="2"
     inkscape:pageopacity="0.0"
     inkscape:pagecheckerboard="0"
     inkscape:deskcolor="#d1d1d1"
     inkscape:zoom="27.121244"
     inkscape:cx="779.72086"
     inkscape:cy="112.40266"
     inkscape:window-width="2560"
     inkscape:window-height="1387"
     inkscape:window-x="-8"
     inkscape:window-y="-8"
     inkscape:window-maximized="1"
     inkscape:current-layer="Layer_1" />
  <g
     fill-rule="evenodd"
     class="svelte-1gcdbl9"
     id="g4">
    <path
       d="m125.52,3.31C65.14.91,14.26,47.91,11.86,108.29c-2.4,60.38,44.61,111.26,104.98,113.66,60.38,2.4,111.26-44.6,113.66-104.98C232.89,56.59,185.89,5.7,125.52,3.31Zm46.18,160.28c-1.36,2.4-4.01,3.6-6.59,3.24-.79-.11-1.58-.37-2.32-.79-14.46-8.23-30.22-13.59-46.84-15.93-16.62-2.34-33.25-1.53-49.42,2.4-3.51.85-7.04-1.3-7.89-4.81-.85-3.51,1.3-7.04,4.81-7.89,17.78-4.32,36.06-5.21,54.32-2.64,18.26,2.57,35.58,8.46,51.49,17.51,3.13,1.79,4.23,5.77,2.45,8.91Zm14.38-28.72c-2.23,4.12-7.39,5.66-11.51,3.43-16.92-9.15-35.24-15.16-54.45-17.86-19.21-2.7-38.47-1.97-57.26,2.16-1.02.22-2.03.26-3.01.12-3.41-.48-6.33-3.02-7.11-6.59-1.01-4.58,1.89-9.11,6.47-10.12,20.77-4.57,42.06-5.38,63.28-2.4,21.21,2.98,41.46,9.62,60.16,19.74,4.13,2.23,5.66,7.38,3.43,11.51Zm15.94-32.38c-2.1,4.04-6.47,6.13-10.73,5.53-1.15-.16-2.28-.52-3.37-1.08-19.7-10.25-40.92-17.02-63.07-20.13-22.15-3.11-44.42-2.45-66.18,1.97-5.66,1.15-11.17-2.51-12.32-8.16-1.15-5.66,2.51-11.17,8.16-12.32,24.1-4.89,48.74-5.62,73.25-2.18,24.51,3.44,47.99,10.94,69.81,22.29,5.12,2.66,7.11,8.97,4.45,14.09Z"
       id="path1" />
    <path
       d="m318.54,169.81c-18.87,0-35.07-6.53-41.84-13.95-.64-.73-.73-1.13-.73-2.02v-22.09c0-1.05.89-1.45,1.61-.56,8.14,10.16,25.48,18.46,39.67,18.46,11.29,0,18.87-3.06,18.87-13.06,0-5.97-2.82-9.84-18.22-14.19l-8.87-2.5c-20.56-5.8-33.06-12.66-33.06-32.33,0-17.41,16.12-32.73,43.05-32.73,13.22,0,26.36,4.11,33.94,9.76.64.48.89.97.89,1.85v20.08c0,1.37-1.13,1.77-2.18.89-6.13-5.08-17.98-11.93-32.01-11.93s-20.64,6.29-20.64,12.09c0,6.13,4.27,7.82,19.51,12.34l7.58,2.26c23.46,7.01,33.06,16.85,33.06,33.14,0,20.96-17.41,34.51-40.63,34.51Zm164.39-42.09c0-12.82,8.87-22.33,21.37-22.33s21.28,9.51,21.28,22.33-8.87,22.33-21.28,22.33-21.37-9.51-21.37-22.33Zm21.28,42.09c26.04,0,44.18-18.62,44.18-42.09s-18.14-42.09-44.18-42.09-44.1,18.46-44.1,42.09,17.98,42.09,44.1,42.09Zm157.22-89.01v6.77h-13.71c-.73,0-1.13.4-1.13,1.13v16.12c0,.73.4,1.13,1.13,1.13h13.71v60.79c0,.73.4,1.13,1.13,1.13h20.64c.73,0,1.13-.4,1.13-1.13v-60.79h17.66l25.64,55.71-13.79,30.31c-.4.89.08,1.29.89,1.29h22.01c.73,0,1.05-.16,1.37-.89l45.55-103.52c.32-.73-.08-1.29-.89-1.29h-20.64c-.73,0-1.05.16-1.37.89l-20.8,49.99-20.88-49.99c-.32-.73-.64-.89-1.37-.89h-33.38v-5.32c0-8.71,5.89-12.74,13.46-12.74,4.51,0,9.43,2.34,12.9,4.43.81.48,1.37-.08,1.05-.81l-7.26-17.33c-.24-.56-.56-.89-1.13-1.21-3.55-1.85-9.35-3.47-15-3.47-17.09,0-26.93,13.06-26.93,29.67Zm-243,88.52c20.64,0,35.47-17.82,35.47-41.76s-15-41.44-35.64-41.44c-15.32,0-24.19,9.35-29.35,18.7v-16.12c0-.73-.4-1.13-1.13-1.13h-20.24c-.73,0-1.13.4-1.13,1.13v103.44c0,.73.4,1.13,1.13,1.13h20.24c.73,0,1.13-.4,1.13-1.13v-41.36c5.16,9.35,13.87,18.54,29.51,18.54Zm172.21-.32c6.77,0,13.3-1.77,17.17-4.03.56-.32.64-.64.64-1.21v-15.32c0-.81-.4-1.05-1.13-.64-2.34,1.29-5.4,2.34-9.59,2.34-6.61,0-10.8-3.87-10.8-12.42v-31.77h20.16c.73,0,1.13-.4,1.13-1.13v-16.12c0-.73-.4-1.13-1.13-1.13h-20.16v-21.04c0-.89-.56-1.37-1.37-.73l-36.04,28.38c-.48.4-.64.81-.64,1.45v9.19c0,.73.4,1.13,1.13,1.13h14.03v35.15c0,19.03,10.96,27.9,26.61,27.9Zm23.3-105.29c0,7.26,5.64,12.74,13.38,12.74s13.54-5.48,13.54-12.74-5.64-12.74-13.54-12.74-13.38,5.48-13.38,12.74Zm3.14,104.17h20.64c.73,0,1.13-.4,1.13-1.13v-78.04c0-.73-.4-1.13-1.13-1.13h-20.64c-.73,0-1.13.4-1.13,1.13v78.04c0,.73.4,1.13,1.13,1.13Zm-228.65-40.47c3.71-12.42,12.25-21.93,23.86-21.93s18.7,8.38,18.7,22.09-7.66,22.25-18.7,22.25-20.16-10.64-23.86-22.41Z"
       id="path2" />
    <path
       d="m810.1,92.31c-1.06-1.83-2.53-3.26-4.41-4.3-1.88-1.03-3.98-1.55-6.32-1.55s-4.44.52-6.32,1.55c-1.88,1.04-3.35,2.47-4.41,4.3-1.06,1.83-1.59,3.9-1.59,6.21s.53,4.34,1.59,6.17c1.06,1.83,2.53,3.26,4.41,4.3,1.88,1.04,3.98,1.55,6.32,1.55s4.44-.52,6.32-1.55,3.35-2.47,4.41-4.3c1.06-1.83,1.59-3.88,1.59-6.17s-.53-4.38-1.59-6.21Zm-1.93,11.36c-.86,1.52-2.06,2.7-3.59,3.56-1.53.85-3.27,1.28-5.2,1.28s-3.72-.43-5.25-1.28c-1.53-.85-2.72-2.04-3.57-3.56-.85-1.51-1.27-3.23-1.27-5.15s.42-3.63,1.27-5.13c.85-1.5,2.04-2.68,3.57-3.53,1.53-.85,3.28-1.28,5.25-1.28s3.67.43,5.2,1.28c1.53.85,2.73,2.04,3.59,3.56.86,1.52,1.29,3.23,1.29,5.15s-.43,3.59-1.29,5.11Z"
       id="path3" />
    <path
       d="m803.56,98.29c.82-.6,1.23-1.4,1.23-2.39s-.4-1.83-1.2-2.43c-.8-.6-1.96-.9-3.48-.9h-5.36v11.2h2.59v-4.45h1.41l3.41,4.45h3.18l-3.73-4.72c.79-.15,1.46-.4,1.96-.77Zm-3.86-.99h-2.36v-2.74h2.45c.73,0,1.29.11,1.68.34.39.23.59.58.59,1.06,0,.45-.21.79-.61,1.01-.41.23-.99.34-1.75.34Z"
       id="path4" />
  </g>
  <path
     style="fill:#ffffff;stroke-width:2.50292;stroke-linecap:round;stroke-linejoin:round;stroke-miterlimit:3.8;stroke-dashoffset:26.4"
     d="M 108.40525,221.08956 C 87.823096,218.48257 68.827705,210.48922 52.769854,197.67791 48.028808,193.89541 39.890323,185.72071 36.002368,180.83583 23.38584,164.98423 15.66066,146.8751 12.868425,126.60594 11.897637,119.55887 11.901377,105.79061 12.876012,98.678539 16.258513,73.995876 26.888383,52.589444 44.376911,35.242019 60.634715,19.11539 80.072014,9.1023669 103.24537,4.9162417 c 5.501,-0.9937224 7.06861,-1.0957973 17.31185,-1.1272644 12.68919,-0.038981 16.87635,0.4199478 27.11494,2.9719033 14.92455,3.7199234 29.70598,11.0607234 41.92388,20.8203604 4.55015,3.634658 12.80375,11.877142 16.45054,16.4284 21.74815,27.142056 29.46042,62.572659 20.85708,95.818709 -10.00988,38.68137 -40.81615,69.20396 -79.44007,78.70852 -3.3268,0.81865 -8.01977,1.79322 -10.42883,2.1657 -6.10868,0.94451 -22.48071,1.16581 -28.62951,0.38699 z m 60.59431,-54.69843 c 3.89552,-1.84855 4.9256,-7.07095 2.06519,-10.47035 -0.5439,-0.64639 -3.58939,-2.51795 -6.76776,-4.15903 -29.73826,-15.35467 -64.1456,-19.9556 -97.267298,-13.00654 -6.541226,1.37238 -8.63898,3.19341 -8.613834,7.47757 0.01059,1.80381 0.239942,2.7618 0.860082,3.5924 2.277184,3.05005 4.553942,3.55477 10.227177,2.26721 12.084522,-2.74261 28.650752,-3.69181 41.251003,-2.36356 16.68966,1.75934 32.00198,6.31268 47.05278,13.99182 7.05478,3.59946 8.50555,3.9456 11.19266,2.67048 z m 14.50442,-28.40141 c 2.4961,-1.75433 3.57391,-3.91326 3.58228,-7.1756 0.0129,-5.04088 -1.76823,-6.76308 -11.97686,-11.5804 -34.9813,-16.50721 -72.61045,-21.435052 -110.659262,-14.49173 -6.57975,1.2007 -8.880615,2.22094 -10.633584,4.71511 -1.118904,1.59201 -1.255276,2.11813 -1.255276,4.84282 0,2.72347 0.136457,3.25052 1.251459,4.83359 1.581627,2.24558 4.293906,3.71847 6.844346,3.71678 1.053729,-6.9e-4 3.874559,-0.38154 6.268516,-0.84633 16.635778,-3.22985 36.084211,-3.75271 52.588731,-1.41383 17.77805,2.51935 33.88684,7.50971 50.47552,15.63687 6.7135,3.28909 6.94369,3.36708 9.34614,3.16654 1.81668,-0.15164 2.91055,-0.52006 4.16799,-1.40382 z m 12.87164,-30.33369 c 5.42813,-1.93711 8.23842,-7.934854 6.36324,-13.580491 -1.11759,-3.364739 -3.08869,-5.017295 -9.91978,-8.31665 C 151.46757,65.786492 105.74824,59.286794 60.70551,66.976926 c -4.130991,0.705285 -8.05875,1.616635 -9.063341,2.102948 -3.463672,1.676733 -5.528439,5.244772 -5.528439,9.553466 0,3.468815 0.940796,5.561868 3.520737,7.832824 3.326811,2.928376 5.367907,3.151595 14.373614,1.571908 40.160149,-7.044463 81.368479,-1.251426 118.913509,16.716768 6.47335,3.098 7.56004,3.49178 9.59452,3.47672 1.26189,-0.009 2.99867,-0.26833 3.85951,-0.57553 z"
     id="path5" />
  <path
     style="fill:#ffffff;stroke-width:2.50292;stroke-linecap:round;stroke-linejoin:round;stroke-miterlimit:3.8;stroke-dashoffset:26.4"
     d="m 309.7361,169.11011 c -11.83137,-1.34001 -23.90592,-5.7771 -30.27402,-11.12493 l -2.88964,-2.42668 -0.11059,-12.18194 c -0.0608,-6.70007 0.033,-12.18168 0.20858,-12.18136 0.17554,3.2e-4 1.83785,1.4716 3.69401,3.26951 7.29342,7.06452 18.78181,12.81888 29.37166,14.71181 4.37685,0.78236 12.87323,0.673 16.26713,-0.20938 7.66768,-1.99351 11.31297,-7.18569 10.1005,-14.38669 -1.00886,-5.99168 -5.4811,-8.79489 -21.10851,-13.23087 -19.72168,-5.59817 -26.50347,-8.72365 -32.14062,-14.81244 -4.72969,-5.10862 -6.69,-11.126299 -6.40739,-19.669109 0.13799,-4.171146 0.36956,-5.666254 1.26472,-8.165695 4.73027,-13.207745 18.24614,-21.94253 36.20326,-23.396773 13.27151,-1.074783 28.67528,2.507624 37.84908,8.802444 l 1.7729,1.216518 V 76.33442 c 0,6.055442 -0.15707,11.106971 -0.34905,11.22562 -0.19198,0.118648 -1.83452,-0.818618 -3.65009,-2.082813 -6.39708,-4.454334 -11.58012,-6.873768 -18.90878,-8.826593 -3.46893,-0.924344 -4.88236,-1.068395 -10.6729,-1.087736 -7.23099,-0.02415 -10.10763,0.485159 -14.06411,2.490057 -7.39,3.744798 -9.37339,11.436578 -4.04587,15.690339 2.15152,1.71789 6.04543,3.190861 17.98615,6.803736 12.18161,3.68577 16.58607,5.31083 21.69499,8.00454 9.08714,4.79125 14.58201,11.16523 16.64316,19.30582 0.84467,3.33609 0.73191,12.40338 -0.19714,15.85182 -1.02662,3.81058 -3.63584,8.92856 -6.10894,11.98268 -5.6012,6.91712 -15.29257,11.91711 -26.0681,13.44912 -3.43222,0.48798 -11.61812,0.47222 -16.06039,-0.0309 z"
     id="path6" />
  <path
     style="fill:#ffffff;stroke-width:2.50292;stroke-linecap:round;stroke-linejoin:round;stroke-miterlimit:3.8;stroke-dashoffset:26.4"
     d="m 366.66137,192.41182 c -0.10918,-0.28679 -0.15022,-23.89244 -0.0912,-52.45699 l 0.10731,-51.935547 10.95026,-0.111214 10.95027,-0.111215 v 8.558563 c 0,4.707213 0.14079,8.550903 0.31286,8.541543 0.17208,-0.009 1.09661,-1.27647 2.05451,-2.81579 4.75672,-7.643878 12.02705,-13.059603 20.06295,-14.945043 4.10997,-0.964308 11.14641,-0.855242 15.32203,0.237496 14.68301,3.842468 24.61135,16.272657 26.9524,33.744167 0.29064,2.16912 0.38487,5.77633 0.23599,9.03395 -0.54646,11.95679 -4.82204,22.25419 -12.23839,29.47523 -5.15919,5.02331 -10.43505,7.74432 -17.35649,8.95154 -13.4373,2.34369 -26.169,-3.60033 -33.38765,-15.58765 -0.72535,-1.20453 -1.46269,-2.19005 -1.63852,-2.19005 -0.17583,0 -0.31969,9.4798 -0.31969,21.06623 v 21.06622 h -10.85907 c -8.30328,0 -10.90579,-0.12272 -11.05758,-0.52144 z m 50.55412,-43.02722 c 6.85529,-1.82528 11.6343,-7.3297 13.35177,-15.37842 0.87685,-4.10924 0.54866,-11.96062 -0.66069,-15.80585 -2.40261,-7.63937 -8.22031,-12.25214 -16.09079,-12.75817 -6.20843,-0.39917 -11.84724,1.6853 -16.38478,6.05689 -3.71422,3.57839 -7.41174,9.75076 -8.89281,14.84504 -0.84838,2.9181 4.78863,13.05869 9.824,17.67269 2.7859,2.55278 6.74296,4.80135 9.64877,5.48286 2.47175,0.5797 6.79837,0.52563 9.20453,-0.11504 z"
     id="path7" />
  <path
     style="fill:#ffffff;stroke-width:2.50292;stroke-linecap:round;stroke-linejoin:round;stroke-miterlimit:3.8;stroke-dashoffset:26.4"
     d="m 496.09033,168.97062 c -16.7071,-2.95568 -29.07318,-13.34548 -33.79025,-28.39006 -5.04378,-16.08662 0.12222,-34.40351 12.5768,-44.592984 8.30263,-6.792638 17.73508,-9.993537 29.4611,-9.997611 10.07783,-0.0035 18.38268,2.446881 26.15013,7.71571 18.25811,12.384895 23.20224,38.678225 10.74556,57.145985 -5.75606,8.53369 -14.52869,14.52351 -25.39321,17.33809 -5.01099,1.29816 -14.66793,1.67997 -19.75013,0.78087 z m 15.23418,-19.84304 c 6.8695,-2.12492 12.22992,-8.34354 13.87148,-16.0923 2.63747,-12.44976 -3.89293,-24.16321 -15.09851,-27.08189 -3.08348,-0.80315 -8.46494,-0.79549 -11.58231,0.0165 -7.38221,1.92282 -12.98112,7.70294 -14.99651,15.48187 -1.3007,5.02039 -0.70519,11.91486 1.44996,16.78694 4.18643,9.46412 15.65035,14.20042 26.35589,10.8889 z"
     id="path8" />
  <path
     style="fill:#ffffff;stroke-width:2.50292;stroke-linecap:round;stroke-linejoin:round;stroke-miterlimit:3.8;stroke-dashoffset:26.4"
     d="m 583.59705,168.08697 c -9.29661,-2.03625 -15.60198,-8.11174 -18.24309,-17.57797 -0.8658,-3.10318 -0.91473,-4.21537 -1.05592,-23.99783 l -0.14805,-20.74383 -7.37974,-0.11382 -7.37975,-0.11381 -0.0986,-5.42299 -0.0986,-5.422989 18.42873,-14.471441 c 10.13581,-7.959293 18.5806,-14.377585 18.76621,-14.262872 0.18561,0.114714 0.33747,5.074959 0.33747,11.022767 v 10.814196 l 10.53312,0.111451 10.53311,0.111451 v 8.760213 8.760214 l -10.55343,0.11149 -10.55344,0.1115 0.12461,18.24323 c 0.12311,18.02279 0.1362,18.26838 1.08358,20.32381 1.17344,2.54588 2.28609,3.7773 4.46402,4.94059 1.39295,0.744 2.35777,0.88848 5.84014,0.87454 3.5432,-0.0142 4.5784,-0.18436 6.87271,-1.12987 1.48564,-0.61226 2.85087,-0.96349 3.03383,-0.78053 0.18297,0.18297 0.28147,3.88567 0.2189,8.22824 l -0.11377,7.89557 -2.35294,1.17702 c -3.87424,1.93801 -7.90819,2.81076 -13.91602,3.01075 -3.90829,0.1301 -6.2386,0.002 -8.34306,-0.45908 z"
     id="path9" />
  <path
     style="fill:#ffffff;stroke-width:2.50292;stroke-linecap:round;stroke-linejoin:round;stroke-miterlimit:3.8;stroke-dashoffset:26.4"
     d="M 616.34356,127.64882 V 87.810706 h 11.05455 11.05456 v 39.838114 39.83811 h -11.05456 -11.05455 z"
     id="path10" />
  <path
     style="fill:#ffffff;stroke-width:2.50292;stroke-linecap:round;stroke-linejoin:round;stroke-miterlimit:3.8;stroke-dashoffset:26.4"
     d="m 623.43516,75.764476 c -3.99799,-1.3131 -7.4005,-4.511364 -8.58118,-8.066069 -1.40939,-4.243257 -0.0534,-10.047135 3.015,-12.904361 4.13284,-3.848463 10.61215,-4.64818 15.96954,-1.971061 4.07486,2.03623 6.27271,5.365669 6.6059,10.007029 0.25477,3.549025 -0.64969,6.348809 -2.86341,8.863724 -2.4524,2.786077 -5.53295,4.146975 -9.72059,4.294282 -1.86031,0.06544 -3.85168,-0.03516 -4.42526,-0.223544 z"
     id="path11" />
  <path
     style="fill:#ffffff;stroke-width:2.50292;stroke-linecap:round;stroke-linejoin:round;stroke-miterlimit:3.8;stroke-dashoffset:26.4"
     d="m 713.95736,192.60953 c 0,-0.17806 3.10993,-7.15933 6.91094,-15.51394 3.80103,-8.35461 6.83291,-15.48304 6.73752,-15.84094 -0.0954,-0.35791 -5.8599,-12.99326 -12.81002,-28.07855 l -12.63658,-27.42781 h -9.11844 -9.11844 v 30.86932 30.86932 h -11.05455 -11.05456 v -30.8597 -30.85969 l -7.40446,-0.11392 -7.40447,-0.11391 v -8.760214 -8.760213 l 7.36259,-0.113743 7.36259,-0.113743 0.18972,-6.977858 c 0.21646,-7.961597 0.68621,-10.171101 3.30165,-15.529495 3.20149,-6.55906 9.41601,-11.534079 16.44361,-13.163888 3.2438,-0.752287 9.10117,-0.835189 12.71457,-0.179955 3.30509,0.599327 8.32191,2.378375 9.21702,3.268508 0.69155,0.6877 7.85839,17.406462 7.85839,18.331994 0,0.273155 -1.14715,-0.135631 -2.6072,-0.929076 -3.74299,-2.034069 -7.77284,-3.156053 -11.33565,-3.156053 -5.98142,0 -9.77961,2.038461 -11.90256,6.388019 -1.08561,2.224233 -1.29775,3.228473 -1.53559,7.269115 l -0.27597,4.688344 17.41991,0.108916 17.41991,0.108915 10.35516,24.820607 c 5.69534,13.65133 10.51491,25.07979 10.71015,25.39659 0.23967,0.38886 3.72756,-7.53917 10.73615,-24.40345 5.70963,-13.73869 10.56004,-25.21409 10.77868,-25.500882 0.29993,-0.393424 3.0417,-0.521442 11.16781,-0.521442 5.92365,0 10.86095,0.146708 10.97177,0.326018 0.11082,0.17931 -10.14011,23.831886 -22.77985,52.561276 l -22.98135,52.23526 h -11.81923 c -6.50057,0 -11.81922,-0.14568 -11.81922,-0.32373 z"
     id="path12" />
  <path
     style="fill:#ffffff;stroke-width:2.50292;stroke-linecap:round;stroke-linejoin:round;stroke-miterlimit:3.8;stroke-dashoffset:26.4"
     d=""
     id="path13" />
  <path
     style="fill:#ffffff;stroke-width:0.221229;stroke-linecap:round;stroke-linejoin:round;stroke-miterlimit:3.8;stroke-dashoffset:26.4"
     d="m 794.78285,98.170274 v -5.567591 h 3.02008 c 3.26177,0 3.51214,0.01196 4.27017,0.204033 1.48145,0.375365 2.42594,1.283386 2.64569,2.543523 0.2121,1.216265 -0.25955,2.304785 -1.30248,3.005971 -0.38488,0.258764 -1.15038,0.55399 -1.67618,0.646443 -0.0907,0.01594 -0.1342,0.04106 -0.12278,0.07083 0.01,0.02537 0.83205,1.076017 1.82735,2.334757 0.99531,1.25875 1.80965,2.29785 1.80965,2.30913 0,0.0113 -0.6952,0.0205 -1.54488,0.0205 h -1.54488 l -1.69059,-2.21066 -1.69059,-2.210651 -0.72822,-0.0016 -0.72821,-0.0016 v 2.212291 2.21229 h -1.27206 -1.27207 z m 5.75195,-0.902044 c 0.89139,-0.136314 1.39805,-0.486105 1.51415,-1.045353 0.0446,-0.214742 0.0302,-0.477662 -0.0391,-0.715635 -0.0892,-0.306054 -0.41958,-0.609367 -0.83189,-0.763634 -0.4333,-0.162119 -0.74234,-0.186737 -2.34407,-0.186737 h -1.5069 v 1.38268 1.382679 l 1.42877,-2.17e-4 c 1.06311,-1.62e-4 1.51842,-0.01393 1.77905,-0.05378 z"
     id="path14" />
  <path
     style="fill:#ffffff;stroke-width:0.221229;stroke-linecap:round;stroke-linejoin:round;stroke-miterlimit:3.8;stroke-dashoffset:26.4"
     d="m 798.26721,110.48471 c -2.51592,-0.20099 -4.70757,-1.00548 -6.59887,-2.42228 -2.40128,-1.79882 -3.9834,-4.46496 -4.44408,-7.48903 -0.12124,-0.795842 -0.15822,-1.440768 -0.13674,-2.38469 0.0219,-0.961876 0.0803,-1.515519 0.24702,-2.341338 0.96346,-4.772307 4.67845,-8.312469 9.61663,-9.164077 1.70452,-0.293952 3.65376,-0.259614 5.32402,0.09379 3.09179,0.654181 5.71425,2.392144 7.39976,4.903999 1.03984,1.549624 1.65304,3.237299 1.90901,5.253996 0.0812,0.639777 0.0924,2.407316 0.019,3.005024 -0.17238,1.404406 -0.46341,2.501686 -0.96201,3.627106 -1.17611,2.65468 -3.23886,4.69659 -5.94048,5.88049 -1.15458,0.50595 -2.33253,0.8189 -3.70482,0.98425 -0.567,0.0683 -2.15037,0.0989 -2.72848,0.0528 z m 2.00949,-1.9914 c 3.12924,-0.23682 5.78333,-1.68101 7.41806,-4.03645 1.09262,-1.57431 1.65836,-3.26357 1.75859,-5.251001 0.11495,-2.279325 -0.35252,-4.283597 -1.40603,-6.028407 -0.42912,-0.710696 -0.75074,-1.12329 -1.34859,-1.730049 -1.47471,-1.496691 -3.38585,-2.439006 -5.61565,-2.768874 -0.93929,-0.138954 -2.47732,-0.13912 -3.41824,-3.67e-4 -1.8349,0.270583 -3.5229,0.976759 -4.83618,2.023211 -1.89202,1.507621 -3.07015,3.620898 -3.45464,6.196836 -0.0533,0.357025 -0.0658,0.673836 -0.0649,1.64078 10e-4,1.054641 0.011,1.261201 0.0834,1.722741 0.17777,1.13356 0.48323,2.10122 0.96346,3.05211 0.90269,1.78738 2.20759,3.1126 3.99103,4.05315 1.65888,0.87486 3.82234,1.2858 5.92971,1.12632 z"
     id="path15" />
</svg>
